<svg width="65" height="37" viewBox="0 0 65 37" fill="none" xmlns="http://www.w3.org/2000/svg">
<path d="M8.57531 4.192C8.31931 3.72267 7.96731 3.36533 7.51931 3.12C7.07131 2.87467 6.54865 2.752 5.95131 2.752C5.28998 2.752 4.70331 2.90133 4.19131 3.2C3.67931 3.49867 3.27931 3.92533 2.99131 4.48C2.70331 5.03467 2.55931 5.67467 2.55931 6.4C2.55931 7.14667 2.70331 7.79733 2.99131 8.352C3.28998 8.90667 3.70065 9.33333 4.22331 9.632C4.74598 9.93067 5.35398 10.08 6.04731 10.08C6.90065 10.08 7.59931 9.856 8.14331 9.408C8.68731 8.94933 9.04465 8.31467 9.21531 7.504H5.37531V5.792H11.4233V7.744C11.274 8.52267 10.954 9.24267 10.4633 9.904C9.97265 10.5653 9.33798 11.0987 8.55931 11.504C7.79131 11.8987 6.92731 12.096 5.96731 12.096C4.88998 12.096 3.91398 11.856 3.03931 11.376C2.17531 10.8853 1.49265 10.208 0.991313 9.344C0.500646 8.48 0.255313 7.49867 0.255313 6.4C0.255313 5.30133 0.500646 4.32 0.991313 3.456C1.49265 2.58133 2.17531 1.904 3.03931 1.424C3.91398 0.933333 4.88465 0.688 5.95131 0.688C7.20998 0.688 8.30331 0.997333 9.23131 1.616C10.1593 2.224 10.7993 3.08267 11.1513 4.192H8.57531ZM15.3206 4.512C15.6086 4.04267 15.9819 3.67467 16.4406 3.408C16.9099 3.14133 17.4432 3.008 18.0406 3.008V5.36H17.4486C16.7446 5.36 16.2112 5.52533 15.8486 5.856C15.4966 6.18667 15.3206 6.76267 15.3206 7.584V12H13.0806V3.136H15.3206V4.512ZM23.4853 12.144C22.632 12.144 21.864 11.9573 21.1813 11.584C20.4986 11.2 19.96 10.6613 19.5653 9.968C19.1813 9.27467 18.9893 8.47467 18.9893 7.568C18.9893 6.66133 19.1866 5.86133 19.5813 5.168C19.9866 4.47467 20.536 3.94133 21.2293 3.568C21.9226 3.184 22.696 2.992 23.5493 2.992C24.4026 2.992 25.176 3.184 25.8693 3.568C26.5626 3.94133 27.1066 4.47467 27.5013 5.168C27.9066 5.86133 28.1093 6.66133 28.1093 7.568C28.1093 8.47467 27.9013 9.27467 27.4853 9.968C27.08 10.6613 26.5253 11.2 25.8213 11.584C25.128 11.9573 24.3493 12.144 23.4853 12.144ZM23.4853 10.192C23.8906 10.192 24.2693 10.096 24.6213 9.904C24.984 9.70133 25.272 9.40267 25.4853 9.008C25.6986 8.61333 25.8053 8.13333 25.8053 7.568C25.8053 6.72533 25.5813 6.08 25.1333 5.632C24.696 5.17333 24.1573 4.944 23.5173 4.944C22.8773 4.944 22.3386 5.17333 21.9013 5.632C21.4746 6.08 21.2613 6.72533 21.2613 7.568C21.2613 8.41067 21.4693 9.06133 21.8853 9.52C22.312 9.968 22.8453 10.192 23.4853 10.192ZM29.1764 7.568C29.1764 6.65067 29.3631 5.85067 29.7364 5.168C30.1098 4.47467 30.6271 3.94133 31.2884 3.568C31.9498 3.184 32.7071 2.992 33.5604 2.992C34.6591 2.992 35.5658 3.26933 36.2804 3.824C37.0058 4.368 37.4911 5.136 37.7364 6.128H35.3204C35.1924 5.744 34.9738 5.44533 34.6644 5.232C34.3658 5.008 33.9924 4.896 33.5444 4.896C32.9044 4.896 32.3978 5.13067 32.0244 5.6C31.6511 6.05867 31.4644 6.71467 31.4644 7.568C31.4644 8.41067 31.6511 9.06667 32.0244 9.536C32.3978 9.99467 32.9044 10.224 33.5444 10.224C34.4511 10.224 35.0431 9.81867 35.3204 9.008H37.7364C37.4911 9.968 37.0058 10.7307 36.2804 11.296C35.5551 11.8613 34.6484 12.144 33.5604 12.144C32.7071 12.144 31.9498 11.9573 31.2884 11.584C30.6271 11.2 30.1098 10.6667 29.7364 9.984C29.3631 9.29067 29.1764 8.48533 29.1764 7.568ZM47.6174 7.376C47.6174 7.696 47.5961 7.984 47.5534 8.24H41.0734C41.1268 8.88 41.3508 9.38133 41.7454 9.744C42.1401 10.1067 42.6254 10.288 43.2014 10.288C44.0334 10.288 44.6254 9.93067 44.9774 9.216H47.3934C47.1374 10.0693 46.6468 10.7733 45.9214 11.328C45.1961 11.872 44.3054 12.144 43.2494 12.144C42.3961 12.144 41.6281 11.9573 40.9454 11.584C40.2734 11.2 39.7454 10.6613 39.3614 9.968C38.9881 9.27467 38.8014 8.47467 38.8014 7.568C38.8014 6.65067 38.9881 5.84533 39.3614 5.152C39.7348 4.45867 40.2574 3.92533 40.9294 3.552C41.6014 3.17867 42.3748 2.992 43.2494 2.992C44.0921 2.992 44.8441 3.17333 45.5054 3.536C46.1774 3.89867 46.6948 4.416 47.0574 5.088C47.4308 5.74933 47.6174 6.512 47.6174 7.376ZM45.2974 6.736C45.2868 6.16 45.0788 5.70133 44.6734 5.36C44.2681 5.008 43.7721 4.832 43.1854 4.832C42.6308 4.832 42.1614 5.00267 41.7774 5.344C41.4041 5.67467 41.1748 6.13867 41.0894 6.736H45.2974ZM51.4924 4.512C51.7804 4.04267 52.1538 3.67467 52.6124 3.408C53.0818 3.14133 53.6151 3.008 54.2124 3.008V5.36H53.6204C52.9164 5.36 52.3831 5.52533 52.0204 5.856C51.6684 6.18667 51.4924 6.76267 51.4924 7.584V12H49.2524V3.136H51.4924V4.512ZM64.2012 3.136L58.7132 16.192H56.3292L58.2492 11.776L54.6972 3.136H57.2092L59.4972 9.328L61.8172 3.136H64.2012ZM16.7175 24.832V36H14.4775V28.736L11.4855 36H9.7895L6.7815 28.736V36H4.5415V24.832H7.0855L10.6375 33.136L14.1895 24.832H16.7175ZM18.3561 31.536C18.3561 30.64 18.5321 29.8453 18.8841 29.152C19.2468 28.4587 19.7321 27.9253 20.3401 27.552C20.9588 27.1787 21.6468 26.992 22.4041 26.992C23.0655 26.992 23.6415 27.1253 24.1321 27.392C24.6335 27.6587 25.0335 27.9947 25.3321 28.4V27.136H27.5881V36H25.3321V34.704C25.0441 35.12 24.6441 35.4667 24.1321 35.744C23.6308 36.0107 23.0495 36.144 22.3881 36.144C21.6415 36.144 20.9588 35.952 20.3401 35.568C19.7321 35.184 19.2468 34.6453 18.8841 33.952C18.5321 33.248 18.3561 32.4427 18.3561 31.536ZM25.3321 31.568C25.3321 31.024 25.2255 30.56 25.0121 30.176C24.7988 29.7813 24.5108 29.4827 24.1481 29.28C23.7855 29.0667 23.3961 28.96 22.9801 28.96C22.5641 28.96 22.1801 29.0613 21.8281 29.264C21.4761 29.4667 21.1881 29.7653 20.9641 30.16C20.7508 30.544 20.6441 31.0027 20.6441 31.536C20.6441 32.0693 20.7508 32.5387 20.9641 32.944C21.1881 33.3387 21.4761 33.6427 21.8281 33.856C22.1908 34.0693 22.5748 34.176 22.9801 34.176C23.3961 34.176 23.7855 34.0747 24.1481 33.872C24.5108 33.6587 24.7988 33.36 25.0121 32.976C25.2255 32.5813 25.3321 32.112 25.3321 31.568ZM32.0159 28.512C32.3039 28.0427 32.6772 27.6747 33.1359 27.408C33.6052 27.1413 34.1385 27.008 34.7359 27.008V29.36H34.1439C33.4399 29.36 32.9065 29.5253 32.5439 29.856C32.1919 30.1867 32.0159 30.7627 32.0159 31.584V36H29.7759V27.136H32.0159V28.512ZM41.4926 36L38.4846 32.224V36H36.2446V24.16H38.4846V30.896L41.4606 27.136H44.3726L40.4686 31.584L44.4046 36H41.4926ZM53.8284 31.376C53.8284 31.696 53.807 31.984 53.7644 32.24H47.2844C47.3377 32.88 47.5617 33.3813 47.9564 33.744C48.351 34.1067 48.8364 34.288 49.4124 34.288C50.2444 34.288 50.8364 33.9307 51.1884 33.216H53.6044C53.3484 34.0693 52.8577 34.7733 52.1324 35.328C51.407 35.872 50.5164 36.144 49.4604 36.144C48.607 36.144 47.839 35.9573 47.1564 35.584C46.4844 35.2 45.9564 34.6613 45.5724 33.968C45.199 33.2747 45.0124 32.4747 45.0124 31.568C45.0124 30.6507 45.199 29.8453 45.5724 29.152C45.9457 28.4587 46.4684 27.9253 47.1404 27.552C47.8124 27.1787 48.5857 26.992 49.4604 26.992C50.303 26.992 51.055 27.1733 51.7164 27.536C52.3884 27.8987 52.9057 28.416 53.2684 29.088C53.6417 29.7493 53.8284 30.512 53.8284 31.376ZM51.5084 30.736C51.4977 30.16 51.2897 29.7013 50.8844 29.36C50.479 29.008 49.983 28.832 49.3964 28.832C48.8417 28.832 48.3724 29.0027 47.9884 29.344C47.615 29.6747 47.3857 30.1387 47.3004 30.736H51.5084ZM58.0714 28.976V33.264C58.0714 33.5627 58.1407 33.7813 58.2794 33.92C58.4287 34.048 58.674 34.112 59.0154 34.112H60.0554V36H58.6474C56.7594 36 55.8154 35.0827 55.8154 33.248V28.976H54.7594V27.136H55.8154V24.944H58.0714V27.136H60.0554V28.976H58.0714Z" fill="#F57521"/>
</svg>
