<svg width="28" height="28" viewBox="0 0 28 28" fill="none" xmlns="http://www.w3.org/2000/svg">
<path d="M19.104 3.79148C20.4565 3.79552 21.7526 4.33462 22.709 5.29103C23.6654 6.24744 24.2045 7.54345 24.2085 8.89602V19.104C24.2045 20.4565 23.6654 21.7526 22.709 22.709C21.7526 23.6654 20.4565 24.2045 19.104 24.2085H8.89602C7.54345 24.2045 6.24744 23.6654 5.29103 22.709C4.33462 21.7526 3.79552 20.4565 3.79148 19.104V8.89602C3.79552 7.54345 4.33462 6.24744 5.29103 5.29103C6.24744 4.33462 7.54345 3.79552 8.89602 3.79148H19.104ZM19.104 1.75H8.89602C4.96562 1.75 1.75 4.96562 1.75 8.89602V19.104C1.75 23.0344 4.96562 26.25 8.89602 26.25H19.104C23.0344 26.25 26.25 23.0344 26.25 19.104V8.89602C26.25 4.96562 23.0344 1.75 19.104 1.75Z" fill="#F9CC3D"/>
<path d="M20.6348 8.89648C20.3319 8.89648 20.0359 8.80668 19.7841 8.63842C19.5322 8.47017 19.336 8.23102 19.2201 7.95122C19.1042 7.67142 19.0739 7.36354 19.1329 7.0665C19.192 6.76947 19.3379 6.49663 19.552 6.28248C19.7662 6.06833 20.039 5.92249 20.336 5.86341C20.6331 5.80432 20.941 5.83465 21.2208 5.95054C21.5006 6.06644 21.7397 6.26271 21.908 6.51452C22.0762 6.76633 22.166 7.06238 22.166 7.36523C22.1665 7.56644 22.1271 7.76575 22.0503 7.95173C21.9735 8.13771 21.8608 8.30668 21.7185 8.44896C21.5762 8.59123 21.4072 8.70401 21.2213 8.78081C21.0353 8.85761 20.836 8.89692 20.6348 8.89648Z" fill="#F9CC3D"/>
<path d="M14 9.91648C14.8076 9.91648 15.5972 10.156 16.2687 10.6047C16.9402 11.0534 17.4636 11.6911 17.7727 12.4373C18.0818 13.1835 18.1626 14.0045 18.0051 14.7967C17.8475 15.5888 17.4586 16.3164 16.8875 16.8875C16.3164 17.4586 15.5888 17.8475 14.7967 18.0051C14.0045 18.1626 13.1835 18.0817 12.4373 17.7727C11.6911 17.4636 11.0534 16.9402 10.6047 16.2687C10.156 15.5972 9.91649 14.8076 9.91649 14C9.91765 12.9173 10.3482 11.8794 11.1138 11.1138C11.8794 10.3482 12.9173 9.91764 14 9.91648ZM14 7.875C12.7886 7.875 11.6044 8.23422 10.5971 8.90725C9.58988 9.58027 8.80483 10.5369 8.34124 11.6561C7.87765 12.7753 7.75636 14.0068 7.99269 15.1949C8.22903 16.3831 8.81238 17.4744 9.66897 18.331C10.5256 19.1876 11.6169 19.771 12.8051 20.0073C13.9932 20.2436 15.2247 20.1224 16.3439 19.6588C17.4631 19.1952 18.4197 18.4101 19.0928 17.4029C19.7658 16.3956 20.125 15.2114 20.125 14C20.125 12.3755 19.4797 10.8176 18.331 9.66897C17.1824 8.52031 15.6245 7.875 14 7.875Z" fill="#F9CC3D"/>
</svg>
