<svg width="28" height="36" viewBox="0 0 28 36" fill="none" xmlns="http://www.w3.org/2000/svg">
<path fill-rule="evenodd" clip-rule="evenodd" d="M4.90863 0.0511315C4.90863 0.0792539 4.81659 0.102263 4.7041 0.102263C4.59161 0.102263 4.49958 0.125272 4.49958 0.153395C4.49958 0.181517 4.45356 0.204526 4.39731 0.204526C4.34107 0.204526 4.29505 0.227535 4.29505 0.255658C4.29505 0.28378 4.25992 0.306789 4.21702 0.306789C4.12187 0.306789 3.68147 0.737931 3.68147 0.831041C3.68147 0.867754 3.63545 0.930952 3.57921 0.971499C3.51918 1.01481 3.47695 1.10388 3.47695 1.18733C3.47695 1.26545 3.45394 1.32942 3.42581 1.32942C3.39242 1.32942 3.37468 2.19866 3.37468 3.83487V6.34031H3.22129C3.13692 6.34031 3.06789 6.3173 3.06789 6.28918C3.06789 6.26106 3.02187 6.23805 2.96563 6.23805C2.90938 6.23805 2.86337 6.21504 2.86337 6.18692C2.86337 6.15879 2.81735 6.13579 2.7611 6.13579C2.70486 6.13579 2.65884 6.11278 2.65884 6.08465C2.65884 6.05653 2.58981 6.03352 2.50545 6.03352C2.42108 6.03352 2.35205 6.01051 2.35205 5.98239C2.35205 5.95427 2.28302 5.93126 2.19866 5.93126C2.11429 5.93126 2.04526 5.90825 2.04526 5.88013C2.04526 5.84945 1.84074 5.829 1.53395 5.829C1.22716 5.829 1.02263 5.84945 1.02263 5.88013C1.02263 5.90825 0.976613 5.93126 0.920368 5.93126C0.864123 5.93126 0.818105 5.95427 0.818105 5.98239C0.818105 6.01051 0.782977 6.03352 0.740078 6.03352C0.638582 6.03352 0.204526 6.46758 0.204526 6.56907C0.204526 6.61197 0.181517 6.6471 0.153395 6.6471C0.125272 6.6471 0.102263 6.73914 0.102263 6.85163C0.102263 6.96412 0.0792539 7.05615 0.0511315 7.05615C0.0230092 7.05615 0 7.14819 0 7.26068C0 7.37317 0.0230092 7.46521 0.0511315 7.46521C0.0792539 7.46521 0.102263 7.55724 0.102263 7.66973C0.102263 7.78222 0.125272 7.87426 0.153395 7.87426C0.181517 7.87426 0.204526 7.92028 0.204526 7.97652C0.204526 8.03277 0.227535 8.07878 0.255658 8.07878C0.28378 8.07878 0.306789 8.1248 0.306789 8.18105C0.306789 8.23729 0.329798 8.28331 0.357921 8.28331C0.386043 8.28331 0.409052 8.31961 0.409052 8.364C0.409052 8.40843 0.501089 8.53314 0.613579 8.64123C0.726068 8.74932 0.818105 8.86422 0.818105 8.89653C0.818105 8.97216 0.946957 9.10142 1.02227 9.10142C1.05423 9.10142 1.19244 9.21646 1.32942 9.35707C1.4664 9.49768 1.60936 9.61273 1.64715 9.61273C1.68499 9.61273 1.74906 9.65875 1.7896 9.71499C1.83015 9.77124 1.89918 9.81726 1.943 9.81726C1.98682 9.81726 2.05585 9.86328 2.09639 9.91952C2.13694 9.97576 2.21103 10.0218 2.26109 10.0218C2.3111 10.0218 2.35205 10.0448 2.35205 10.0729C2.35205 10.101 2.39807 10.124 2.45431 10.124C2.51056 10.124 2.55658 10.1471 2.55658 10.1752C2.55658 10.2033 2.6026 10.2263 2.65884 10.2263C2.71509 10.2263 2.7611 10.2493 2.7611 10.2774C2.7611 10.3056 2.80712 10.3286 2.86337 10.3286C2.91961 10.3286 2.96563 10.3516 2.96563 10.3797C2.96563 10.4078 3.03466 10.4308 3.11902 10.4308C3.20339 10.4308 3.27242 10.4538 3.27242 10.482C3.27242 10.5101 3.31844 10.5331 3.37468 10.5331C3.47014 10.5331 3.47695 10.5672 3.47695 11.0444C3.47695 11.3512 3.4974 11.5557 3.52808 11.5557C3.5562 11.5557 3.57921 11.6248 3.57921 11.7091C3.57921 11.7935 3.60222 11.8625 3.63034 11.8625C3.65846 11.8625 3.68147 11.8976 3.68147 11.9405C3.68147 12.0113 4.10187 12.4761 4.16589 12.4761C4.18067 12.4761 4.19279 10.1752 4.19279 7.36294V2.24979H11.0736C16.9689 2.24979 17.9649 2.26027 18.0275 2.32285C18.0886 2.38391 18.1006 2.7611 18.1006 4.62377C18.1006 6.72538 18.1057 6.85163 18.1915 6.85163C18.2416 6.85163 18.3157 6.89765 18.3562 6.95389C18.3968 7.01014 18.4709 7.05615 18.5209 7.05615C18.5709 7.05615 18.6119 7.07916 18.6119 7.10729C18.6119 7.13541 18.6579 7.15842 18.7141 7.15842C18.8152 7.15842 18.8164 7.12431 18.8164 4.29505C18.8164 2.42021 18.7988 1.43168 18.7653 1.43168C18.7372 1.43168 18.7141 1.36266 18.7141 1.27829C18.7141 1.19392 18.6911 1.12489 18.663 1.12489C18.6349 1.12489 18.6119 1.07888 18.6119 1.02263C18.6119 0.966386 18.5889 0.920368 18.5608 0.920368C18.5326 0.920368 18.5096 0.885087 18.5096 0.841983C18.5096 0.746265 18.1812 0.409052 18.088 0.409052C18.0511 0.409052 17.9877 0.363034 17.9472 0.306789C17.9066 0.250545 17.8325 0.204526 17.7825 0.204526C17.7325 0.204526 17.6915 0.181517 17.6915 0.153395C17.6915 0.125272 17.5765 0.102263 17.4359 0.102263C17.2952 0.102263 17.1802 0.0792539 17.1802 0.0511315C17.1802 0.0173336 15.1008 0 11.0444 0C6.988 0 4.90863 0.0173336 4.90863 0.0511315ZM12.6112 1.09933C12.6794 1.16749 12.6794 1.18456 12.6112 1.25272C12.5467 1.3173 12.304 1.32942 11.0736 1.32942H9.61273V1.17603V1.02263H11.0736C12.304 1.02263 12.5467 1.03475 12.6112 1.09933ZM16.9757 7.10729C16.9757 7.13541 16.9297 7.15842 16.8734 7.15842C16.8172 7.15842 16.7711 7.18143 16.7711 7.20955C16.7711 7.23767 16.735 7.26068 16.6908 7.26068C16.6466 7.26068 16.5776 7.29356 16.5374 7.33375C16.4972 7.37388 16.4644 7.44291 16.4644 7.48714C16.4644 7.53132 16.4413 7.56747 16.4132 7.56747C16.3851 7.56747 16.3621 7.61349 16.3621 7.66973C16.3621 7.72598 16.3391 7.772 16.311 7.772C16.2828 7.772 16.2598 7.81801 16.2598 7.87426C16.2598 7.9305 16.2368 7.97652 16.2087 7.97652C16.1773 7.97652 16.1576 8.23218 16.1576 8.64123C16.1576 9.05028 16.1773 9.30594 16.2087 9.30594C16.2368 9.30594 16.2598 9.37497 16.2598 9.45934C16.2598 9.5437 16.2828 9.61273 16.311 9.61273C16.3391 9.61273 16.3621 9.65875 16.3621 9.71499C16.3621 9.77124 16.3851 9.81726 16.4132 9.81726C16.4413 9.81726 16.4644 9.86328 16.4644 9.91952C16.4644 9.97576 16.4874 10.0218 16.5155 10.0218C16.5436 10.0218 16.5666 10.0627 16.5666 10.1127C16.5666 10.1628 16.6126 10.2369 16.6689 10.2774C16.7251 10.318 16.7711 10.3829 16.7711 10.4216C16.7711 10.4603 16.8402 10.5566 16.9245 10.6354C17.0089 10.7142 17.0779 10.8042 17.0779 10.8355C17.0779 10.9092 17.9281 11.7603 18.0016 11.7603C18.0323 11.7603 18.1459 11.8523 18.254 11.9648C18.3621 12.0773 18.4776 12.1693 18.5106 12.1693C18.5438 12.1693 18.6354 12.2383 18.7141 12.3227C18.7929 12.4071 18.8835 12.4761 18.9153 12.4761C19.0278 12.4761 19.3277 12.8281 19.3277 12.9602C19.3277 13.0314 19.3507 13.0897 19.3789 13.0897C19.407 13.0897 19.43 13.1587 19.43 13.2431C19.43 13.3274 19.453 13.3965 19.4811 13.3965C19.5092 13.3965 19.5323 13.5115 19.5323 13.6521C19.5323 13.7927 19.5553 13.9078 19.5834 13.9078C19.6118 13.9078 19.6345 14.0441 19.6345 14.2146C19.6345 14.385 19.6572 14.5214 19.6856 14.5214C19.7141 14.5214 19.7368 14.6577 19.7368 14.8281C19.7368 14.9986 19.7595 15.1349 19.7879 15.1349C19.8171 15.1349 19.839 15.2883 19.839 15.4929C19.839 15.6974 19.861 15.8508 19.8902 15.8508C19.9212 15.8508 19.9413 16.0723 19.9413 16.4132C19.9413 16.9183 19.932 16.9757 19.8503 16.9757C19.8003 16.9757 19.7262 16.9297 19.6856 16.8734C19.6451 16.8172 19.571 16.7711 19.521 16.7711C19.4709 16.7711 19.43 16.7481 19.43 16.72C19.43 16.6919 19.407 16.6689 19.3789 16.6689C19.3451 16.6689 19.3277 18.663 19.3277 22.549C19.3277 26.435 19.3104 28.4291 19.2766 28.4291C19.2485 28.4291 19.2255 28.4982 19.2255 28.5825C19.2255 28.6669 19.2025 28.7359 19.1743 28.7359C19.1462 28.7359 19.1232 28.7819 19.1232 28.8382C19.1232 28.8944 19.1002 28.9405 19.0721 28.9405C19.0439 28.9405 19.0209 28.9756 19.0209 29.0185C19.0209 29.12 18.5869 29.554 18.4854 29.554C18.4425 29.554 18.4074 29.577 18.4074 29.6052C18.4074 29.6333 18.3613 29.6563 18.3051 29.6563C18.2488 29.6563 18.2028 29.6793 18.2028 29.7074C18.2028 29.7355 18.1568 29.7586 18.1006 29.7586C18.0443 29.7586 17.9983 29.7816 17.9983 29.8097C17.9983 29.8434 16.311 29.8608 13.0385 29.8608C10.3107 29.8608 8.07878 29.8725 8.07878 29.8869C8.07878 29.9391 9.35764 31.1902 9.41102 31.1902C9.44124 31.1902 9.57801 31.3053 9.71499 31.4459C9.85198 31.5865 9.9908 31.7016 10.0235 31.7016C10.0562 31.7016 10.1475 31.7706 10.2263 31.855C10.3051 31.9393 10.3971 32.0083 10.4308 32.0083C10.4645 32.0083 10.5566 32.0774 10.6354 32.1617C10.7142 32.2461 10.8104 32.3151 10.8491 32.3151C10.8878 32.3151 10.9527 32.3612 10.9933 32.4174C11.0338 32.4736 11.1029 32.5197 11.1467 32.5197C11.1905 32.5197 11.2595 32.5657 11.3001 32.6219C11.3406 32.6782 11.4096 32.7242 11.4535 32.7242C11.4973 32.7242 11.5663 32.7702 11.6069 32.8265C11.6474 32.8827 11.7164 32.9287 11.7603 32.9287C11.8041 32.9287 11.8731 32.9747 11.9137 33.031C11.9542 33.0872 12.0283 33.1332 12.0783 33.1332C12.1284 33.1332 12.1693 33.1562 12.1693 33.1844C12.1693 33.2125 12.2103 33.2355 12.2603 33.2355C12.3103 33.2355 12.3844 33.2815 12.425 33.3378C12.4655 33.394 12.5396 33.44 12.5897 33.44C12.6397 33.44 12.6806 33.463 12.6806 33.4912C12.6806 33.5193 12.7266 33.5423 12.7829 33.5423C12.8391 33.5423 12.8851 33.5653 12.8851 33.5934C12.8851 33.6215 12.9261 33.6446 12.9761 33.6446C13.0262 33.6446 13.1003 33.6906 13.1408 33.7468C13.1814 33.8031 13.2554 33.8491 13.3055 33.8491C13.3555 33.8491 13.3965 33.8721 13.3965 33.9002C13.3965 33.9283 13.4425 33.9513 13.4987 33.9513C13.555 33.9513 13.601 33.9744 13.601 34.0025C13.601 34.0306 13.647 34.0536 13.7033 34.0536C13.7595 34.0536 13.8055 34.0766 13.8055 34.1047C13.8055 34.1329 13.8515 34.1559 13.9078 34.1559C13.964 34.1559 14.01 34.1789 14.01 34.207C14.01 34.2351 14.0561 34.2581 14.1123 34.2581C14.1686 34.2581 14.2146 34.2811 14.2146 34.3093C14.2146 34.3374 14.2606 34.3604 14.3168 34.3604C14.3731 34.3604 14.4191 34.3834 14.4191 34.4115C14.4191 34.4397 14.4651 34.4627 14.5214 34.4627C14.5776 34.4627 14.6236 34.4857 14.6236 34.5138C14.6236 34.5419 14.6696 34.5649 14.7259 34.5649C14.7821 34.5649 14.8281 34.5879 14.8281 34.6161C14.8281 34.6442 14.8742 34.6672 14.9304 34.6672C14.9867 34.6672 15.0327 34.6902 15.0327 34.7183C15.0327 34.7464 15.0787 34.7695 15.1349 34.7695C15.1912 34.7695 15.2372 34.7925 15.2372 34.8206C15.2372 34.8487 15.2962 34.8717 15.3684 34.8717C15.4584 34.8717 15.5775 34.9517 15.7485 35.1274C15.8855 35.268 16.0233 35.383 16.0548 35.383C16.0863 35.383 16.2476 35.5211 16.4132 35.6898C16.6895 35.9713 16.8734 36.0735 16.8734 35.9455C16.8734 35.9174 16.9194 35.8943 16.9757 35.8943C17.0319 35.8943 17.0779 35.8713 17.0779 35.8432C17.0779 35.8151 17.1189 35.7921 17.1689 35.7921C17.219 35.7921 17.293 35.7461 17.3336 35.6898C17.3741 35.6336 17.4482 35.5876 17.4983 35.5876C17.5483 35.5876 17.5893 35.5645 17.5893 35.5364C17.5893 35.5083 17.6302 35.4853 17.6802 35.4853C17.7303 35.4853 17.8044 35.4393 17.8449 35.383C17.8855 35.3268 17.9595 35.2808 18.0096 35.2808C18.0596 35.2808 18.1006 35.2578 18.1006 35.2296C18.1006 35.2015 18.1415 35.1785 18.1915 35.1785C18.2416 35.1785 18.3157 35.1325 18.3562 35.0762C18.3968 35.02 18.4709 34.974 18.5209 34.974C18.5709 34.974 18.6119 34.951 18.6119 34.9228C18.6119 34.8947 18.6528 34.8717 18.7028 34.8717C18.7529 34.8717 18.827 34.8257 18.8675 34.7695C18.9081 34.7132 18.9822 34.6672 19.0322 34.6672C19.0822 34.6672 19.1232 34.6442 19.1232 34.6161C19.1232 34.5879 19.1642 34.5649 19.2142 34.5649C19.2642 34.5649 19.3383 34.5189 19.3789 34.4627C19.4194 34.4064 19.4935 34.3604 19.5436 34.3604C19.5936 34.3604 19.6345 34.3374 19.6345 34.3093C19.6345 34.2811 19.6755 34.2581 19.7255 34.2581C19.7755 34.2581 19.8496 34.2121 19.8902 34.1559C19.9307 34.0996 20.0048 34.0536 20.0549 34.0536C20.1049 34.0536 20.1458 34.0306 20.1458 34.0025C20.1458 33.9744 20.1868 33.9513 20.2368 33.9513C20.2868 33.9513 20.3609 33.9053 20.4015 33.8491C20.442 33.7928 20.5161 33.7468 20.5662 33.7468C20.6162 33.7468 20.6571 33.7238 20.6571 33.6957C20.6571 33.6676 20.6981 33.6446 20.7481 33.6446C20.7982 33.6446 20.8723 33.5985 20.9128 33.5423C20.9534 33.486 21.0274 33.44 21.0775 33.44C21.1275 33.44 21.1685 33.417 21.1685 33.3889C21.1685 33.3608 21.2094 33.3378 21.2594 33.3378C21.3095 33.3378 21.3836 33.2917 21.4241 33.2355C21.4647 33.1793 21.5388 33.1332 21.5888 33.1332C21.6388 33.1332 21.6798 33.1102 21.6798 33.0821C21.6798 33.054 21.7207 33.031 21.7707 33.031C21.8208 33.031 21.8949 32.985 21.9354 32.9287C21.976 32.8725 22.0501 32.8265 22.1001 32.8265C22.1501 32.8265 22.1911 32.8034 22.1911 32.7753C22.1911 32.7472 22.232 32.7242 22.2821 32.7242C22.3321 32.7242 22.4062 32.6782 22.4467 32.6219C22.4873 32.5657 22.5614 32.5197 22.6114 32.5197C22.6615 32.5197 22.7024 32.4967 22.7024 32.4685C22.7024 32.4404 22.7434 32.4174 22.7934 32.4174C22.8434 32.4174 22.9175 32.3714 22.9581 32.3151C22.9986 32.2589 23.0727 32.2129 23.1228 32.2129C23.1728 32.2129 23.2137 32.1899 23.2137 32.1617C23.2137 32.1336 23.2547 32.1106 23.3047 32.1106C23.3547 32.1106 23.4288 32.0646 23.4694 32.0083C23.5099 31.9521 23.584 31.9061 23.6341 31.9061C23.6841 31.9061 23.725 31.8831 23.725 31.855C23.725 31.8268 23.766 31.8038 23.816 31.8038C23.8661 31.8038 23.9401 31.7578 23.9807 31.7016C24.0212 31.6453 24.0953 31.5993 24.1454 31.5993C24.1954 31.5993 24.2364 31.5763 24.2364 31.5482C24.2364 31.52 24.2773 31.497 24.3273 31.497C24.3774 31.497 24.4515 31.451 24.492 31.3948C24.5326 31.3385 24.6016 31.2925 24.6454 31.2925C24.6892 31.2925 24.7583 31.2465 24.7988 31.1902C24.8393 31.134 24.9134 31.088 24.9635 31.088C25.0135 31.088 25.0545 31.065 25.0545 31.0368C25.0545 31.0087 25.0954 30.9857 25.1454 30.9857C25.1955 30.9857 25.2696 30.9397 25.3101 30.8835C25.3507 30.8272 25.4248 30.7812 25.4748 30.7812C25.5248 30.7812 25.5658 30.7582 25.5658 30.7301C25.5658 30.7019 25.6067 30.6789 25.6567 30.6789C25.7068 30.6789 25.7809 30.6329 25.8214 30.5767C25.862 30.5204 25.9361 30.4744 25.9861 30.4744C26.0361 30.4744 26.0771 30.4514 26.0771 30.4233C26.0771 30.3951 26.1231 30.3721 26.1794 30.3721C26.2356 30.3721 26.2816 30.3491 26.2816 30.321C26.2816 30.2929 26.3226 30.2699 26.3726 30.2699C26.4226 30.2699 26.4967 30.2239 26.5373 30.1676C26.5778 30.1114 26.6468 30.0653 26.6907 30.0653C26.7345 30.0653 26.8035 30.0193 26.8441 29.9631C26.8846 29.9068 26.9587 29.8608 27.0088 29.8608C27.0588 29.8608 27.0997 29.8378 27.0997 29.8097C27.0997 29.7816 27.1457 29.7586 27.202 29.7586C27.2815 29.7586 27.3042 29.7245 27.3042 29.6052C27.3042 29.5208 27.2812 29.4518 27.2531 29.4518C27.225 29.4518 27.202 29.4108 27.202 29.3608C27.202 29.3108 27.156 29.2367 27.0997 29.1961C27.0397 29.1528 26.9975 29.0637 26.9975 28.9803C26.9975 28.9022 26.9744 28.8382 26.9463 28.8382C26.9182 28.8382 26.8952 28.7692 26.8952 28.6848C26.8952 28.6004 26.8722 28.5314 26.8441 28.5314C26.8117 28.5314 26.7929 28.1565 26.7929 27.5088C26.7929 26.8611 26.7742 26.4861 26.7418 26.4861C26.7106 26.4861 26.6907 26.2475 26.6907 25.8726C26.6907 25.4976 26.6708 25.259 26.6395 25.259C26.6092 25.259 26.5884 25.0715 26.5884 24.7988C26.5884 24.5261 26.5676 24.3386 26.5373 24.3386C26.5075 24.3386 26.4861 24.1682 26.4861 23.9296C26.4861 23.6909 26.4648 23.5205 26.435 23.5205C26.4058 23.5205 26.3839 23.3671 26.3839 23.1626C26.3839 22.9581 26.3619 22.8047 26.3327 22.8047C26.3036 22.8047 26.2816 22.6513 26.2816 22.4467C26.2816 22.2422 26.2597 22.0888 26.2305 22.0888C26.2021 22.0888 26.1794 21.9525 26.1794 21.782C26.1794 21.6116 26.1566 21.4753 26.1282 21.4753C26.099 21.4753 26.0771 21.3219 26.0771 21.1173C26.0771 20.9128 26.0552 20.7594 26.026 20.7594C25.9975 20.7594 25.9748 20.623 25.9748 20.4526C25.9748 20.2822 25.9521 20.1458 25.9237 20.1458C25.8953 20.1458 25.8726 20.0095 25.8726 19.839C25.8726 19.6686 25.8499 19.5323 25.8214 19.5323C25.7933 19.5323 25.7703 19.4632 25.7703 19.3789C25.7703 19.2945 25.7473 19.2255 25.7192 19.2255C25.6907 19.2255 25.668 19.0891 25.668 18.9187C25.668 18.7483 25.6453 18.6119 25.6169 18.6119C25.5888 18.6119 25.5658 18.5198 25.5658 18.4074C25.5658 18.2949 25.5428 18.2028 25.5146 18.2028C25.4865 18.2028 25.4635 18.1108 25.4635 17.9983C25.4635 17.8858 25.4405 17.7938 25.4124 17.7938C25.3843 17.7938 25.3612 17.7478 25.3612 17.6915C25.3612 17.6353 25.3382 17.5893 25.3101 17.5893C25.282 17.5893 25.259 17.4742 25.259 17.3336C25.259 17.193 25.236 17.0779 25.2079 17.0779C25.1797 17.0779 25.1567 16.9859 25.1567 16.8734C25.1567 16.7609 25.1337 16.6689 25.1056 16.6689C25.0775 16.6689 25.0545 16.5999 25.0545 16.5155C25.0545 16.4311 25.0314 16.3621 25.0033 16.3621C24.9752 16.3621 24.9522 16.2701 24.9522 16.1576C24.9522 16.0451 24.9292 15.953 24.9011 15.953C24.8729 15.953 24.8499 15.884 24.8499 15.7996C24.8499 15.7153 24.8269 15.6463 24.7988 15.6463C24.7707 15.6463 24.7477 15.5772 24.7477 15.4929C24.7477 15.4085 24.7247 15.3395 24.6965 15.3395C24.6684 15.3395 24.6454 15.2474 24.6454 15.1349C24.6454 15.0224 24.6224 14.9304 24.5943 14.9304C24.5662 14.9304 24.5431 14.8614 24.5431 14.777C24.5431 14.6926 24.5201 14.6236 24.492 14.6236C24.4639 14.6236 24.4409 14.5546 24.4409 14.4702C24.4409 14.3859 24.4179 14.3168 24.3897 14.3168C24.3616 14.3168 24.3386 14.2478 24.3386 14.1634C24.3386 14.0791 24.3156 14.01 24.2875 14.01C24.2594 14.01 24.2364 13.941 24.2364 13.8566C24.2364 13.7723 24.2133 13.7033 24.1852 13.7033C24.1571 13.7033 24.1341 13.6342 24.1341 13.5499C24.1341 13.4655 24.1111 13.3965 24.083 13.3965C24.0548 13.3965 24.0318 13.3274 24.0318 13.2431C24.0318 13.1587 24.0088 13.0897 23.9807 13.0897C23.9526 13.0897 23.9296 12.9976 23.9296 12.8851C23.9296 12.7727 23.9066 12.6806 23.8784 12.6806C23.8503 12.6806 23.8273 12.6116 23.8273 12.5272C23.8273 12.4429 23.8043 12.3738 23.7762 12.3738C23.748 12.3738 23.725 12.3048 23.725 12.2204C23.725 12.1361 23.702 12.067 23.6739 12.067C23.6458 12.067 23.6228 11.998 23.6228 11.9137C23.6228 11.8293 23.5998 11.7603 23.5716 11.7603C23.5435 11.7603 23.5205 11.7142 23.5205 11.658C23.5205 11.6017 23.4975 11.5557 23.4694 11.5557C23.4413 11.5557 23.4182 11.4867 23.4182 11.4023C23.4182 11.318 23.3952 11.2489 23.3671 11.2489C23.339 11.2489 23.316 11.2029 23.316 11.1467C23.316 11.0904 23.293 11.0444 23.2649 11.0444C23.2367 11.0444 23.2137 10.9984 23.2137 10.9422C23.2137 10.8859 23.1907 10.8399 23.1626 10.8399C23.1345 10.8399 23.1115 10.7939 23.1115 10.7376C23.1115 10.6814 23.0884 10.6354 23.0603 10.6354C23.0322 10.6354 23.0092 10.5944 23.0092 10.5444C23.0092 10.4943 22.9632 10.4203 22.9069 10.3797C22.8507 10.3392 22.8047 10.2761 22.8047 10.2395C22.8047 10.1464 22.2614 9.61273 22.1666 9.61273C22.1239 9.61273 22.0888 9.58972 22.0888 9.5616C22.0888 9.53348 22.0428 9.51047 21.9866 9.51047C21.9303 9.51047 21.8843 9.48746 21.8843 9.45934C21.8843 9.43121 21.8383 9.40821 21.782 9.40821C21.7258 9.40821 21.6798 9.3852 21.6798 9.35707C21.6798 9.32895 21.6338 9.30594 21.5775 9.30594C21.5213 9.30594 21.4753 9.28293 21.4753 9.25481C21.4753 9.22669 21.4292 9.20368 21.373 9.20368C21.3167 9.20368 21.2707 9.18067 21.2707 9.15255C21.2707 9.12442 21.2247 9.10142 21.1685 9.10142C21.1122 9.10142 21.0662 9.07841 21.0662 9.05028C21.0662 9.02216 21.0202 8.99915 20.9639 8.99915C20.9077 8.99915 20.8617 8.97614 20.8617 8.94802C20.8617 8.9199 20.7926 8.89689 20.7083 8.89689C20.6239 8.89689 20.5549 8.87388 20.5549 8.84576C20.5549 8.81764 20.5089 8.79463 20.4526 8.79463C20.3964 8.79463 20.3504 8.77162 20.3504 8.74349C20.3504 8.71537 20.3043 8.69236 20.2481 8.69236C20.1918 8.69236 20.1458 8.66935 20.1458 8.64123C20.1458 8.61311 20.0998 8.5901 20.0436 8.5901C19.9873 8.5901 19.9413 8.56709 19.9413 8.53897C19.9413 8.51085 19.9003 8.48784 19.8503 8.48784C19.8003 8.48784 19.7262 8.44182 19.6856 8.38557C19.6451 8.32933 19.571 8.28331 19.521 8.28331C19.4709 8.28331 19.43 8.2603 19.43 8.23218C19.43 8.20406 19.389 8.18105 19.339 8.18105C19.289 8.18105 19.2149 8.13503 19.1743 8.07878C19.1338 8.02254 19.0648 7.97652 19.0209 7.97652C18.9771 7.97652 18.9081 7.9305 18.8675 7.87426C18.827 7.81801 18.7529 7.772 18.7028 7.772C18.6528 7.772 18.6119 7.74899 18.6119 7.72086C18.6119 7.69274 18.5709 7.66973 18.5209 7.66973C18.4709 7.66973 18.3968 7.62371 18.3562 7.56747C18.3157 7.51122 18.2416 7.46521 18.1915 7.46521C18.1415 7.46521 18.1006 7.4422 18.1006 7.41407C18.1006 7.38595 18.0596 7.36294 18.0096 7.36294C17.9595 7.36294 17.8855 7.31692 17.8449 7.26068C17.8044 7.20443 17.7303 7.15842 17.6802 7.15842C17.6302 7.15842 17.5893 7.13541 17.5893 7.10729C17.5893 7.07886 17.4529 7.05615 17.2825 7.05615C17.112 7.05615 16.9757 7.07886 16.9757 7.10729ZM2.35205 11.4023C2.35205 11.4305 2.23701 11.4535 2.09639 11.4535C1.95578 11.4535 1.84074 11.4765 1.84074 11.5046C1.84074 11.5327 1.77171 11.5557 1.68734 11.5557C1.60297 11.5557 1.53395 11.5787 1.53395 11.6069C1.53395 11.635 1.48793 11.658 1.43168 11.658C1.37544 11.658 1.32942 11.681 1.32942 11.7091C1.32942 11.7372 1.29439 11.7603 1.2516 11.7603C1.11774 11.7603 0.613579 12.3048 0.613579 12.4494C0.613579 12.5203 0.590569 12.5784 0.562447 12.5784C0.534325 12.5784 0.511315 12.6704 0.511315 12.7829C0.511315 12.8954 0.488306 12.9874 0.460184 12.9874C0.432062 12.9874 0.409052 13.0794 0.409052 13.1919C0.409052 13.3044 0.432062 13.3965 0.460184 13.3965C0.488613 13.3965 0.511315 13.5328 0.511315 13.7033C0.511315 13.8737 0.534018 14.01 0.562447 14.01C0.590569 14.01 0.613579 14.0791 0.613579 14.1634C0.613579 14.2478 0.636588 14.3168 0.66471 14.3168C0.692832 14.3168 0.715842 14.3578 0.715842 14.4078C0.715842 14.4579 0.76186 14.5319 0.818105 14.5725C0.874349 14.613 0.920368 14.6771 0.920368 14.7149C0.920368 14.7527 1.03541 14.8957 1.17603 15.0327C1.31664 15.1697 1.43168 15.3067 1.43168 15.3373C1.43168 15.4161 1.97823 15.953 2.05845 15.953C2.09501 15.953 2.15811 15.9991 2.19866 16.0553C2.24196 16.1153 2.33104 16.1576 2.41448 16.1576C2.49261 16.1576 2.55658 16.1806 2.55658 16.2087C2.55658 16.2379 2.70997 16.2598 2.9145 16.2598C3.11902 16.2598 3.27242 16.2379 3.27242 16.2087C3.27242 16.1806 3.34145 16.1576 3.42581 16.1576C3.51018 16.1576 3.57921 16.1346 3.57921 16.1064C3.57921 16.0783 3.61434 16.0553 3.65724 16.0553C3.75873 16.0553 4.19279 15.6213 4.19279 15.5198C4.19279 15.4769 4.2158 15.4417 4.24392 15.4417C4.27204 15.4417 4.29505 15.3727 4.29505 15.2883C4.29505 15.204 4.31806 15.1349 4.34618 15.1349C4.3743 15.1349 4.39731 15.0429 4.39731 14.9304C4.39731 14.8179 4.42032 14.7259 4.44844 14.7259C4.47657 14.7259 4.49958 14.6569 4.49958 14.5725C4.49958 14.4881 4.47657 14.4191 4.44844 14.4191C4.42032 14.4191 4.39731 14.3041 4.39731 14.1634C4.39731 14.0228 4.3743 13.9078 4.34618 13.9078C4.31806 13.9078 4.29505 13.8618 4.29505 13.8055C4.29505 13.7493 4.27204 13.7033 4.24392 13.7033C4.2158 13.7033 4.19279 13.6393 4.19279 13.5612C4.19279 13.4777 4.15055 13.3886 4.09052 13.3453C4.03428 13.3048 3.98826 13.2399 3.98826 13.2011C3.98826 13.1624 3.91923 13.0662 3.83487 12.9874C3.7505 12.9086 3.68147 12.817 3.68147 12.7839C3.68147 12.7508 3.58943 12.6353 3.47695 12.5272C3.36446 12.4191 3.27242 12.2944 3.27242 12.25C3.27242 12.2056 3.24941 12.1693 3.22129 12.1693C3.19317 12.1693 3.17016 12.1233 3.17016 12.067C3.17016 12.0108 3.14715 11.9648 3.11902 11.9648C3.0909 11.9648 3.06789 11.9188 3.06789 11.8625C3.06789 11.8063 3.04488 11.7603 3.01676 11.7603C2.98864 11.7603 2.96563 11.6682 2.96563 11.5557V11.3512H2.65884C2.48842 11.3512 2.35205 11.3739 2.35205 11.4023ZM17.9983 12.6295C17.9983 12.6576 18.0213 12.6806 18.0494 12.6806C18.0833 12.6806 18.1006 14.9913 18.1006 19.5103C18.1006 25.3612 18.0901 26.3505 18.0275 26.4131C17.9649 26.4757 16.9689 26.4861 11.0736 26.4861H4.19279V26.1282C4.19279 25.8044 4.18307 25.7703 4.09052 25.7703C4.03428 25.7703 3.98826 25.7933 3.98826 25.8214C3.98826 25.8496 3.94224 25.8726 3.886 25.8726C3.82975 25.8726 3.78373 25.8956 3.78373 25.9237C3.78373 25.9518 3.73772 25.9748 3.68147 25.9748C3.62523 25.9748 3.57921 25.9978 3.57921 26.026C3.57921 26.0541 3.53319 26.0771 3.47695 26.0771C3.37811 26.0771 3.37468 26.1112 3.37468 27.0997C3.37468 27.7474 3.39345 28.1224 3.42581 28.1224C3.45394 28.1224 3.47695 28.1684 3.47695 28.2246C3.47695 28.2809 3.49995 28.3269 3.52808 28.3269C3.5562 28.3269 3.57921 28.3729 3.57921 28.4291C3.57921 28.4854 3.60222 28.5314 3.63034 28.5314C3.65846 28.5314 3.68147 28.5667 3.68147 28.6098C3.68147 28.7055 4.00989 29.0427 4.1031 29.0427C4.14002 29.0427 4.20337 29.0887 4.24392 29.145C4.28723 29.205 4.3763 29.2472 4.45974 29.2472C4.53787 29.2472 4.60184 29.2703 4.60184 29.2984C4.60184 29.3265 4.71689 29.3495 4.8575 29.3495C4.99811 29.3495 5.11315 29.3725 5.11315 29.4006C5.11315 29.4288 5.15917 29.4518 5.21542 29.4518C5.27166 29.4518 5.31768 29.4288 5.31768 29.4006C5.31768 29.3264 5.61046 29.3378 5.64579 29.4134C5.66962 29.4646 5.68158 29.4646 5.70541 29.4134C5.72903 29.3629 6.97066 29.3495 11.6622 29.3495C15.5795 29.3495 17.5893 29.3322 17.5893 29.2984C17.5893 29.2703 17.6532 29.2472 17.7313 29.2472C17.8148 29.2472 17.9039 29.205 17.9472 29.145C17.9877 29.0887 18.0514 29.0427 18.0886 29.0427C18.1764 29.0427 18.4074 28.8118 18.4074 28.724C18.4074 28.6867 18.4534 28.6231 18.5096 28.5825C18.5659 28.542 18.6119 28.4679 18.6119 28.4178C18.6119 28.3678 18.6349 28.3269 18.663 28.3269C18.6911 28.3269 18.7141 28.2578 18.7141 28.1735C18.7141 28.0891 18.7372 28.0201 18.7653 28.0201C18.7991 28.0201 18.8164 25.4879 18.8164 20.5257C18.8164 12.6009 18.8244 12.8851 18.6012 12.8851C18.5633 12.8851 18.499 12.8391 18.4585 12.7829C18.4179 12.7266 18.3439 12.6806 18.2938 12.6806C18.2438 12.6806 18.2028 12.6576 18.2028 12.6295C18.2028 12.6014 18.1568 12.5784 18.1006 12.5784C18.0443 12.5784 17.9983 12.6014 17.9983 12.6295ZM1.73847 16.6178C1.73847 16.6459 1.69245 16.6689 1.63621 16.6689C1.57996 16.6689 1.53395 16.6919 1.53395 16.72C1.53395 16.7481 1.48793 16.7711 1.43168 16.7711C1.37544 16.7711 1.32942 16.7942 1.32942 16.8223C1.32942 16.8504 1.29414 16.8734 1.25104 16.8734C1.20788 16.8734 1.09284 16.9532 0.995378 17.0507C0.89787 17.1481 0.818105 17.2632 0.818105 17.3063C0.818105 17.3494 0.795096 17.3847 0.766973 17.3847C0.738851 17.3847 0.715842 17.4538 0.715842 17.5381C0.715842 17.6225 0.692832 17.6915 0.66471 17.6915C0.634389 17.6915 0.613579 17.879 0.613579 18.1517C0.613579 18.4244 0.634389 18.6119 0.66471 18.6119C0.692832 18.6119 0.715842 18.7039 0.715842 18.8164C0.715842 18.9289 0.738851 19.0209 0.766973 19.0209C0.795096 19.0209 0.818105 19.09 0.818105 19.1743C0.818105 19.2587 0.841114 19.3277 0.869236 19.3277C0.897359 19.3277 0.920368 19.364 0.920368 19.4084C0.920368 19.4528 1.0124 19.5776 1.12489 19.6856C1.23738 19.7937 1.32942 19.9074 1.32942 19.9381C1.32942 20.0239 2.08422 20.7594 2.17227 20.7594C2.21492 20.7594 2.24979 20.7824 2.24979 20.8105C2.24979 20.8387 2.29581 20.8617 2.35205 20.8617C2.4083 20.8617 2.45431 20.8847 2.45431 20.9128C2.45431 20.9431 2.64181 20.9639 2.9145 20.9639C3.18718 20.9639 3.37468 20.9431 3.37468 20.9128C3.37468 20.8847 3.4207 20.8617 3.47695 20.8617C3.53319 20.8617 3.57921 20.8387 3.57921 20.8105C3.57921 20.7824 3.61475 20.7594 3.65821 20.7594C3.75485 20.7594 3.98826 20.534 3.98826 20.4407C3.98826 20.4034 4.03428 20.3398 4.09052 20.2992C4.16175 20.2479 4.19279 20.1668 4.19279 20.0323C4.19279 19.926 4.2158 19.839 4.24392 19.839C4.27311 19.839 4.29505 19.6856 4.29505 19.4811C4.29505 19.2766 4.27311 19.1232 4.24392 19.1232C4.2158 19.1232 4.19279 19.0312 4.19279 18.9187C4.19279 18.8062 4.16978 18.7141 4.14166 18.7141C4.11353 18.7141 4.09052 18.6681 4.09052 18.6119C4.09052 18.5556 4.06751 18.5096 4.03939 18.5096C4.01127 18.5096 3.98826 18.4636 3.98826 18.4074C3.98826 18.3511 3.96525 18.3051 3.93713 18.3051C3.90901 18.3051 3.886 18.2683 3.886 18.2233C3.886 18.1784 3.81697 18.0771 3.7326 17.9983C3.64824 17.9195 3.57921 17.8279 3.57921 17.7948C3.57921 17.7617 3.48717 17.6462 3.37468 17.5381C3.26219 17.43 3.17016 17.3053 3.17016 17.2609C3.17016 17.2165 3.14715 17.1802 3.11902 17.1802C3.0909 17.1802 3.06789 17.121 3.06789 17.0487C3.06789 16.9008 2.96215 16.7711 2.84143 16.7711C2.79725 16.7711 2.7611 16.7481 2.7611 16.72C2.7611 16.6919 2.66907 16.6689 2.55658 16.6689C2.44409 16.6689 2.35205 16.6459 2.35205 16.6178C2.35205 16.5893 2.21568 16.5666 2.04526 16.5666C1.87484 16.5666 1.73847 16.5893 1.73847 16.6178ZM3.78941 16.7029C3.69027 16.8085 3.68065 16.8417 3.73828 16.8788C3.79856 16.9176 3.7982 16.9317 3.73582 16.9718C3.6762 17.0102 3.69308 17.0477 3.8253 17.1713C3.91494 17.255 3.98826 17.3603 3.98826 17.4052C3.98826 17.4502 4.01127 17.487 4.03939 17.487C4.06971 17.487 4.09052 17.2995 4.09052 17.0268C4.09052 16.6214 4.07989 16.567 4.00104 16.5697C3.95185 16.5715 3.8566 16.6314 3.78941 16.7029ZM4.03939 21.1685C3.99884 21.2247 3.93462 21.2707 3.89663 21.2707C3.76829 21.2707 3.68147 21.4157 3.68147 21.63C3.68147 21.8011 3.71184 21.8717 3.83487 21.9866C3.91923 22.0654 3.98826 22.1667 3.98826 22.2116C3.98826 22.2592 4.0309 22.2934 4.09052 22.2934C4.18711 22.2934 4.19279 22.2592 4.19279 21.6798C4.19279 21.3423 4.17484 21.0662 4.15296 21.0662C4.13102 21.0662 4.07994 21.1122 4.03939 21.1685ZM1.84074 21.4241C1.84074 21.4522 1.77171 21.4753 1.68734 21.4753C1.60297 21.4753 1.53395 21.4983 1.53395 21.5264C1.53395 21.5545 1.49882 21.5775 1.45592 21.5775C1.35442 21.5775 0.920368 22.0116 0.920368 22.1131C0.920368 22.156 0.897359 22.1911 0.869236 22.1911C0.841114 22.1911 0.818105 22.2601 0.818105 22.3445C0.818105 22.4289 0.795096 22.4979 0.766973 22.4979C0.736652 22.4979 0.715842 22.6854 0.715842 22.9581C0.715842 23.2307 0.736652 23.4182 0.766973 23.4182C0.795096 23.4182 0.818105 23.4873 0.818105 23.5716C0.818105 23.656 0.841114 23.725 0.869236 23.725C0.897359 23.725 0.920368 23.789 0.920368 23.8671C0.920368 23.9506 0.962602 24.0396 1.02263 24.083C1.07888 24.1235 1.12489 24.1874 1.12489 24.2249C1.12489 24.2624 1.26295 24.4287 1.43168 24.5943C1.60042 24.7599 1.73847 24.9207 1.73847 24.9517C1.73847 25.0306 1.97537 25.259 2.05723 25.259C2.09445 25.259 2.15811 25.305 2.19866 25.3612C2.2392 25.4175 2.31329 25.4635 2.36335 25.4635C2.41336 25.4635 2.45431 25.4865 2.45431 25.5146C2.45431 25.5453 2.65884 25.5658 2.96563 25.5658C3.27242 25.5658 3.47695 25.5453 3.47695 25.5146C3.47695 25.4865 3.51223 25.4635 3.55533 25.4635C3.65713 25.4635 3.98826 25.1324 3.98826 25.0306C3.98826 24.9875 4.01127 24.9522 4.03939 24.9522C4.06751 24.9522 4.09052 24.9062 4.09052 24.8499C4.09052 24.7937 4.11353 24.7477 4.14166 24.7477C4.16978 24.7477 4.19279 24.6556 4.19279 24.5431C4.19279 24.4307 4.2158 24.3386 4.24392 24.3386C4.27204 24.3386 4.29505 24.2236 4.29505 24.083C4.29505 23.9423 4.27204 23.8273 4.24392 23.8273C4.2158 23.8273 4.19279 23.7353 4.19279 23.6228C4.19279 23.5103 4.16978 23.4182 4.14166 23.4182C4.11353 23.4182 4.09052 23.3722 4.09052 23.316C4.09052 23.2597 4.06751 23.2137 4.03939 23.2137C4.01127 23.2137 3.98826 23.1677 3.98826 23.1115C3.98826 23.0552 3.96525 23.0092 3.93713 23.0092C3.90901 23.0092 3.886 22.9729 3.886 22.9285C3.886 22.8841 3.79396 22.7594 3.68147 22.6513C3.56898 22.5432 3.47695 22.4277 3.47695 22.3946C3.47695 22.3615 3.40792 22.2699 3.32355 22.1911C3.23918 22.1123 3.17016 22.011 3.17016 21.9661C3.17016 21.9211 3.14715 21.8843 3.11902 21.8843C3.0909 21.8843 3.06789 21.8251 3.06789 21.7528C3.06789 21.5709 2.95469 21.4753 2.73917 21.4753C2.63875 21.4753 2.55658 21.4522 2.55658 21.4241C2.55658 21.3949 2.40318 21.373 2.19866 21.373C1.99413 21.373 1.84074 21.3949 1.84074 21.4241ZM12.2716 27.3554C12.2716 27.3835 12.3077 27.4065 12.3519 27.4065C12.4552 27.4065 12.5784 27.5296 12.5784 27.633C12.5784 27.6771 12.6014 27.7133 12.6295 27.7133C12.6576 27.7133 12.6806 27.7823 12.6806 27.8667C12.6806 27.9511 12.6576 28.0201 12.6295 28.0201C12.6014 28.0201 12.5784 28.0562 12.5784 28.1004C12.5784 28.2038 12.4552 28.3269 12.3519 28.3269C12.3077 28.3269 12.2716 28.3499 12.2716 28.378C12.2716 28.4105 11.8625 28.4291 11.1467 28.4291C10.4308 28.4291 10.0218 28.4105 10.0218 28.378C10.0218 28.3499 9.98625 28.3269 9.94278 28.3269C9.89932 28.3269 9.80729 28.2704 9.73826 28.2013C9.51272 27.9759 9.58502 27.4065 9.83919 27.4065C9.88337 27.4065 9.91952 27.3835 9.91952 27.3554C9.91952 27.3228 10.3456 27.3042 11.0955 27.3042C11.8455 27.3042 12.2716 27.3228 12.2716 27.3554Z" fill="#F15A27"/>
</svg>
