<svg width="30" height="36" viewBox="0 0 30 36" fill="none" xmlns="http://www.w3.org/2000/svg">
<path d="M7.9068 31.8045L8.47594 28.1805L7.20815 28.151H1.1543L5.36141 1.40956C5.37394 1.32785 5.41534 1.25337 5.47806 1.19971C5.54078 1.14604 5.62066 1.11676 5.70312 1.11719H15.9108C19.2995 1.11719 21.6381 1.8241 22.8591 3.21937C23.4316 3.87392 23.7961 4.55792 23.9724 5.31065C24.1574 6.10047 24.1607 7.0441 23.98 8.19501L23.967 8.27901V9.01647L24.5394 9.34156C24.9764 9.56349 25.3692 9.86371 25.6983 10.2274C26.1881 10.787 26.5047 11.4983 26.6386 12.3416C26.7768 13.2088 26.7311 14.2408 26.5047 15.4092C26.2436 16.7532 25.8213 17.9237 25.2511 18.8816C24.748 19.7396 24.0715 20.4828 23.2651 21.0634C22.5076 21.6023 21.6077 22.0114 20.5902 22.2732C19.6042 22.5306 18.4801 22.6605 17.2471 22.6605H16.4527C15.8846 22.6605 15.3329 22.8656 14.8998 23.2332C14.4673 23.6048 14.1804 24.1181 14.0901 24.6819L14.0303 25.0081L13.0248 31.3954L12.9791 31.6299C12.9671 31.7041 12.9464 31.7412 12.9159 31.7663C12.8864 31.7905 12.8496 31.8039 12.8115 31.8045H7.9068Z" fill="#253B80"/>
<path d="M25.0816 8.36426C25.0512 8.55953 25.0163 8.75917 24.9772 8.96426C23.631 15.8926 19.0256 18.2861 13.1437 18.2861H10.1489C9.42955 18.2861 8.8234 18.8097 8.71131 19.521L7.17799 29.2693L6.74378 32.0326C6.72649 32.1422 6.73309 32.2543 6.76314 32.3611C6.79319 32.4679 6.84597 32.5669 6.91785 32.6513C6.98973 32.7357 7.07901 32.8035 7.17952 32.85C7.28004 32.8965 7.38941 32.9206 7.50011 32.9206H12.8118C13.4408 32.9206 13.9751 32.4624 14.0741 31.8406L14.1264 31.5701L15.1265 25.2079L15.1907 24.8588C15.2886 24.2348 15.824 23.7766 16.453 23.7766H17.2474C22.3937 23.7766 26.4223 21.6821 27.5998 15.621C28.0917 13.089 27.837 10.9748 26.5355 9.48789C26.123 9.02793 25.6303 8.64716 25.0816 8.36426Z" fill="#179BD7"/>
<path d="M23.6731 7.80116C23.2433 7.67651 22.806 7.57923 22.3639 7.50989C21.4904 7.37531 20.6076 7.31075 19.7239 7.31679H11.7232C11.4187 7.31656 11.1242 7.42553 10.8928 7.624C10.6615 7.82248 10.5087 8.09737 10.4619 8.39898L8.75991 19.2055L8.71094 19.5208C8.76396 19.1768 8.93806 18.8631 9.20173 18.6366C9.46541 18.4101 9.80125 18.2857 10.1485 18.2859H13.1433C19.0252 18.2859 23.6306 15.8913 24.9768 8.96407C25.0171 8.75898 25.0508 8.55934 25.0813 8.36407C24.726 8.17734 24.3558 8.02079 23.9745 7.89607C23.8746 7.86282 23.7741 7.83118 23.6731 7.80116Z" fill="#222D65"/>
<path d="M10.4622 8.39891C10.5086 8.09721 10.6613 7.8222 10.8928 7.62382C11.1242 7.42545 11.419 7.31687 11.7235 7.31782H19.7242C20.672 7.31782 21.5568 7.38 22.3642 7.51091C22.9106 7.597 23.4495 7.72575 23.9759 7.896C24.3731 8.028 24.742 8.184 25.0826 8.364C25.4831 5.80364 25.0794 4.06036 23.6984 2.48182C22.176 0.744 19.4282 0 15.9121 0H5.70443C4.9862 0 4.37352 0.523636 4.26252 1.236L0.0107841 28.2524C-0.00901977 28.3778 -0.00148508 28.506 0.0328699 28.6283C0.0672248 28.7505 0.127585 28.8638 0.209798 28.9604C0.29201 29.0571 0.394125 29.1347 0.509117 29.188C0.624109 29.2412 0.74925 29.2689 0.875931 29.2691H7.1779L8.76019 19.2055L10.4622 8.39891Z" fill="#253B80"/>
</svg>
