<svg width="24" height="28" viewBox="0 0 24 28" fill="none" xmlns="http://www.w3.org/2000/svg">
<path d="M12.3813 0C4.70716 0 0.625977 4.91772 0.625977 10.28C0.625977 12.7668 2.01554 15.868 4.23989 16.8515C4.57765 17.0038 4.76141 16.939 4.83667 16.6257C4.90317 16.3877 5.19543 15.2414 5.33719 14.7007C5.38094 14.5274 5.35819 14.3769 5.21818 14.2141C4.47965 13.3601 3.89337 11.8043 3.89337 10.3447C3.89337 6.6048 6.86676 2.97338 11.9262 2.97338C16.3014 2.97338 19.3623 5.81551 19.3623 9.88095C19.3623 14.4749 16.9315 17.653 13.7726 17.653C12.0242 17.653 10.7222 16.281 11.1352 14.5834C11.634 12.5621 12.6123 10.3885 12.6123 8.93065C12.6123 7.62334 11.8737 6.54179 10.3652 6.54179C8.58534 6.54179 7.14152 8.30412 7.14152 10.6702C7.14152 12.1735 7.67354 13.1886 7.67354 13.1886C7.67354 13.1886 5.91296 20.3009 5.5857 21.6292C5.03268 23.8781 5.66095 27.52 5.71521 27.8333C5.74846 28.0065 5.94272 28.0608 6.05122 27.919C6.22448 27.6915 8.35257 24.6551 8.94935 22.4605C9.16636 21.6607 10.0572 18.4178 10.0572 18.4178C10.6434 19.4766 12.3358 20.3639 14.1383 20.3639C19.5006 20.3639 23.3752 15.651 23.3752 9.80219C23.356 4.19494 18.5573 0 12.3813 0Z" fill="#F9CC3D"/>
</svg>
