<svg width="60" height="40" viewBox="0 0 60 40" fill="none" xmlns="http://www.w3.org/2000/svg">
<path d="M9 36C10.1046 36 11 35.1046 11 34C11 32.8954 10.1046 32 9 32C7.89543 32 7 32.8954 7 34C7 35.1046 7.89543 36 9 36Z" fill="#F15A27"/>
<path d="M50 36C51.1046 36 52 35.1046 52 34C52 32.8954 51.1046 32 50 32C48.8954 32 48 32.8954 48 34C48 35.1046 48.8954 36 50 36Z" fill="#F15A27"/>
<path d="M27 26H31C31.2652 26 31.5196 25.8946 31.7071 25.7071C31.8946 25.5196 32 25.2652 32 25C32 24.7348 31.8946 24.4804 31.7071 24.2929C31.5196 24.1054 31.2652 24 31 24H27C26.7348 24 26.4804 24.1054 26.2929 24.2929C26.1054 24.4804 26 24.7348 26 25C26 25.2652 26.1054 25.5196 26.2929 25.7071C26.4804 25.8946 26.7348 26 27 26Z" fill="#F15A27"/>
<path d="M17 24H13C12.7348 24 12.4804 24.1054 12.2929 24.2929C12.1054 24.4804 12 24.7348 12 25C12 25.2652 12.1054 25.5196 12.2929 25.7071C12.4804 25.8946 12.7348 26 13 26H17C17.2652 26 17.5196 25.8946 17.7071 25.7071C17.8946 25.5196 18 25.2652 18 25C18 24.7348 17.8946 24.4804 17.7071 24.2929C17.5196 24.1054 17.2652 24 17 24Z" fill="#F15A27"/>
<path d="M20 14H24C24.2652 14 24.5196 13.8946 24.7071 13.7071C24.8946 13.5196 25 13.2652 25 13C25 12.7348 24.8946 12.4804 24.7071 12.2929C24.5196 12.1054 24.2652 12 24 12H20C19.7348 12 19.4804 12.1054 19.2929 12.2929C19.1054 12.4804 19 12.7348 19 13C19 13.2652 19.1054 13.5196 19.2929 13.7071C19.4804 13.8946 19.7348 14 20 14Z" fill="#F15A27"/>
<path d="M59 28C59 28 58.9982 18.9355 58.9951 18.9036C58.9938 18.8894 54.6114 7.40363 54.6114 7.40363C54.3366 6.69796 53.8559 6.09132 53.2317 5.66261C52.6074 5.2339 51.8686 5.00297 51.1114 4.99987H42.5C41.981 4.9994 41.4685 5.11501 41 5.33825V2.5C40.9992 1.83719 40.7356 1.20175 40.2669 0.733073C39.7982 0.264397 39.1628 0.000760917 38.5 0H5.5C4.83719 0.000760917 4.20175 0.264397 3.73307 0.733073C3.2644 1.20175 3.00076 1.83719 3 2.5V4H1C0.734784 4 0.48043 4.10536 0.292893 4.29289C0.105357 4.48043 0 4.73478 0 5C0 5.26522 0.105357 5.51957 0.292893 5.70711C0.48043 5.89464 0.734784 6 1 6H3V8H1C0.734784 8 0.48043 8.10536 0.292893 8.29289C0.105357 8.48043 0 8.73478 0 9C0 9.26522 0.105357 9.51957 0.292893 9.70711C0.48043 9.89464 0.734784 10 1 10H3V12H1C0.734784 12 0.48043 12.1054 0.292893 12.2929C0.105357 12.4804 0 12.7348 0 13C0 13.2652 0.105357 13.5196 0.292893 13.7071C0.48043 13.8946 0.734784 14 1 14H3V28H1C0.734784 28 0.48043 28.1054 0.292893 28.2929C0.105357 28.4804 0 28.7348 0 29V33C0 33.2652 0.105357 33.5196 0.292893 33.7071C0.48043 33.8946 0.734784 34 1 34H3C3 35.5913 3.63214 37.1174 4.75736 38.2426C5.88258 39.3679 7.4087 40 9 40C10.5913 40 12.1174 39.3679 13.2426 38.2426C14.3679 37.1174 15 35.5913 15 34H44C44 35.5913 44.6321 37.1174 45.7574 38.2426C46.8826 39.3679 48.4087 40 50 40C51.5913 40 53.1174 39.3679 54.2426 38.2426C55.3679 37.1174 56 35.5913 56 34H59C59.2652 34 59.5196 33.8946 59.7071 33.7071C59.8946 33.5196 60 33.2652 60 33V29C60 28.7348 59.8946 28.4804 59.7071 28.2929C59.5196 28.1054 59.2652 28 59 28ZM3.344 32H2V30H4.53263C4.00984 30.5828 3.60605 31.2622 3.344 32ZM9 38C8.20887 38 7.43552 37.7654 6.77772 37.3259C6.11992 36.8864 5.60723 36.2616 5.30448 35.5307C5.00173 34.7998 4.92252 33.9956 5.07686 33.2196C5.2312 32.4437 5.61216 31.731 6.17157 31.1716C6.73098 30.6122 7.44371 30.2312 8.21964 30.0769C8.99556 29.9225 9.79983 30.0017 10.5307 30.3045C11.2616 30.6072 11.8864 31.1199 12.3259 31.7777C12.7654 32.4355 13 33.2089 13 34C12.9988 35.0605 12.577 36.0772 11.8271 36.8271C11.0772 37.577 10.0605 37.9988 9 38ZM9 28V18H11V21C11 21.2652 11.1054 21.5196 11.2929 21.7071C11.4804 21.8946 11.7348 22 12 22H18C18.2652 22 18.5196 21.8946 18.7071 21.7071C18.8946 21.5196 19 21.2652 19 21V18H21V28H9ZM19 10H25C25.2652 10 25.5196 9.89464 25.7071 9.70711C25.8946 9.51957 26 9.26522 26 9V6H28V16H16V6H18V9C18 9.26522 18.1054 9.51957 18.2929 9.70711C18.4804 9.89464 18.7348 10 19 10ZM20 8V6H24V8H20ZM26 22H32C32.2652 22 32.5196 21.8946 32.7071 21.7071C32.8946 21.5196 33 21.2652 33 21V18H35V28H23V18H25V21C25 21.2652 25.1054 21.5196 25.2929 21.7071C25.4804 21.8946 25.7348 22 26 22ZM31 20H27V18H31V20ZM17 18V20H13V18H17ZM39 32H14.656C14.3939 31.2622 13.9902 30.5828 13.4674 30H39V32ZM39 8.5V28H37V17C37 16.7348 36.8946 16.4804 36.7071 16.2929C36.5196 16.1054 36.2652 16 36 16H30V5C30 4.73478 29.8946 4.48043 29.7071 4.29289C29.5196 4.10536 29.2652 4 29 4H15C14.7348 4 14.4804 4.10536 14.2929 4.29289C14.1054 4.48043 14 4.73478 14 5V16H8C7.73478 16 7.48043 16.1054 7.29289 16.2929C7.10536 16.4804 7 16.7348 7 17V28H5V14H7C7.26522 14 7.51957 13.8946 7.70711 13.7071C7.89464 13.5196 8 13.2652 8 13C8 12.7348 7.89464 12.4804 7.70711 12.2929C7.51957 12.1054 7.26522 12 7 12H5V10H9C9.26522 10 9.51957 9.89464 9.70711 9.70711C9.89464 9.51957 10 9.26522 10 9C10 8.73478 9.89464 8.48043 9.70711 8.29289C9.51957 8.10536 9.26522 8 9 8H5V6H10C10.2652 6 10.5196 5.89464 10.7071 5.70711C10.8946 5.51957 11 5.26522 11 5C11 4.73478 10.8946 4.48043 10.7071 4.29289C10.5196 4.10536 10.2652 4 10 4H5V2.5C5 2.36739 5.05268 2.24021 5.14645 2.14645C5.24021 2.05268 5.36739 2 5.5 2H38.5C38.6326 2 38.7598 2.05268 38.8536 2.14645C38.9473 2.24021 39 2.36739 39 2.5V8.5ZM53.8516 11L56.544 18H45V11H53.8516ZM44.344 32H41V30H45.5326C45.0098 30.5828 44.6061 31.2622 44.344 32ZM41 28V8.5C41.0004 8.10231 41.1586 7.72103 41.4398 7.43982C41.721 7.1586 42.1023 7.00043 42.5 7H51.1114C51.4648 7.00142 51.8096 7.10919 52.1009 7.30929C52.3922 7.50938 52.6165 7.79253 52.7446 8.12188L53.0821 9H44C43.7348 9 43.4804 9.10536 43.2929 9.29289C43.1054 9.48043 43 9.73478 43 10V19C43 19.2652 43.1054 19.5196 43.2929 19.7071C43.4804 19.8946 43.7348 20 44 20H57V24H54C53.8143 24 53.6323 24.0517 53.4743 24.1493C53.3163 24.247 53.1887 24.3867 53.1056 24.5527L51.382 28H41ZM50 38C49.2089 38 48.4355 37.7654 47.7777 37.3259C47.1199 36.8864 46.6072 36.2616 46.3045 35.5307C46.0017 34.7998 45.9225 33.9956 46.0769 33.2196C46.2312 32.4437 46.6122 31.731 47.1716 31.1716C47.731 30.6122 48.4437 30.2312 49.2196 30.0769C49.9956 29.9225 50.7998 30.0017 51.5307 30.3045C52.2616 30.6072 52.8864 31.1199 53.3259 31.7777C53.7654 32.4355 54 33.2089 54 34C53.9988 35.0605 53.577 36.0772 52.8271 36.8271C52.0772 37.577 51.0605 37.9988 50 38ZM53.618 28L54.618 26H57V28H53.618ZM58 32H55.656C55.3939 31.2622 54.9902 30.5828 54.4674 30H58V32Z" fill="#F15A27"/>
<path d="M48 22H45C44.7348 22 44.4804 22.1054 44.2929 22.2929C44.1054 22.4804 44 22.7348 44 23C44 23.2652 44.1054 23.5196 44.2929 23.7071C44.4804 23.8946 44.7348 24 45 24H48C48.2652 24 48.5196 23.8946 48.7071 23.7071C48.8946 23.5196 49 23.2652 49 23C49 22.7348 48.8946 22.4804 48.7071 22.2929C48.5196 22.1054 48.2652 22 48 22Z" fill="#F15A27"/>
</svg>
