<svg width="40" height="40" viewBox="0 0 40 40" fill="none" xmlns="http://www.w3.org/2000/svg">
<path d="M29.167 3.49974C29.6485 3.01823 30.2201 2.63627 30.8493 2.37568C31.4784 2.11508 32.1527 1.98096 32.8337 1.98096C33.5146 1.98096 34.1889 2.11508 34.818 2.37568C35.4472 2.63627 36.0188 3.01823 36.5003 3.49974C36.9818 3.98125 37.3638 4.55289 37.6244 5.18202C37.885 5.81115 38.0191 6.48544 38.0191 7.16641C38.0191 7.84737 37.885 8.52167 37.6244 9.15079C37.3638 9.77992 36.9818 10.3516 36.5003 10.8331L11.7503 35.5831L1.66699 38.3331L4.41699 28.2497L29.167 3.49974Z" stroke="#F15A27" stroke-width="2" stroke-linecap="round" stroke-linejoin="round"/>
</svg>
