<svg width="29" height="29" viewBox="0 0 29 29" fill="none" xmlns="http://www.w3.org/2000/svg">
<mask id="path-1-inside-1" fill="white">
<path fill-rule="evenodd" clip-rule="evenodd" d="M14.1422 9.42849L14.1422 9.42848C16.7457 6.82499 20.9668 6.82499 23.5703 9.42848C26.1738 12.032 26.1738 16.2531 23.5703 18.8566L23.548 18.8787L14.1421 28.2847L4.714 18.8566L4.71405 18.8565C2.1106 16.253 2.11062 12.032 4.7141 9.42848C7.31759 6.82499 11.5387 6.82499 14.1422 9.42848C14.1422 9.42848 14.1422 9.42849 14.1422 9.42849Z"/>
</mask>
<path d="M14.1422 9.42848L13.4351 8.72138L14.1422 9.42848ZM14.1422 9.42849L13.4351 10.1356L14.1422 10.8427L14.8493 10.1356L14.1422 9.42849ZM23.5703 18.8566L24.2758 19.5653L24.2774 19.5637L23.5703 18.8566ZM23.548 18.8787L22.8425 18.17L22.8409 18.1716L23.548 18.8787ZM14.1421 28.2847L13.435 28.9918L14.1421 29.6989L14.8492 28.9918L14.1421 28.2847ZM4.714 18.8566L4.00689 18.1495L3.29979 18.8566L4.00689 19.5637L4.714 18.8566ZM4.71405 18.8565L5.42116 19.5636L6.12826 18.8565L5.42116 18.1494L4.71405 18.8565ZM13.4351 8.72138L13.4351 8.72138L14.8493 10.1356L14.8493 10.1356L13.4351 8.72138ZM24.2774 8.72138C21.2834 5.72736 16.4291 5.72736 13.4351 8.72138L14.8493 10.1356C17.0623 7.92262 20.6502 7.92262 22.8632 10.1356L24.2774 8.72138ZM24.2774 19.5637C27.2714 16.5697 27.2714 11.7154 24.2774 8.72138L22.8632 10.1356C25.0762 12.3486 25.0762 15.9365 22.8632 18.1495L24.2774 19.5637ZM24.2535 19.5875L24.2758 19.5653L22.8648 18.1478L22.8425 18.17L24.2535 19.5875ZM14.8492 28.9918L24.2551 19.5858L22.8409 18.1716L13.435 27.5776L14.8492 28.9918ZM4.00689 19.5637L13.435 28.9918L14.8492 27.5776L5.42111 18.1495L4.00689 19.5637ZM4.00694 18.1494L4.00689 18.1495L5.42111 19.5637L5.42116 19.5636L4.00694 18.1494ZM5.42116 18.1494C3.20823 15.9365 3.20824 12.3485 5.4212 10.1356L4.00699 8.72138C1.01299 11.7154 1.01297 16.5696 4.00694 19.5636L5.42116 18.1494ZM5.4212 10.1356C7.63417 7.92262 11.2221 7.92262 13.4351 10.1356L14.8493 8.72138C11.8553 5.72736 7.00101 5.72736 4.00699 8.72138L5.4212 10.1356ZM13.4351 10.1356C13.4351 10.1356 13.4351 10.1356 13.4351 10.1356C13.4351 10.1356 13.4351 10.1356 13.4351 10.1356L13.4351 10.1356L13.4351 10.1356L13.4351 10.1356C13.4351 10.1356 13.4351 10.1356 13.4351 10.1356C13.4351 10.1356 13.4351 10.1356 13.4351 10.1356C13.4351 10.1356 13.4351 10.1356 13.4351 10.1356C13.4351 10.1356 13.4351 10.1356 13.4351 10.1356C13.4351 10.1356 13.4351 10.1356 13.4351 10.1356L13.4351 10.1356L13.4351 10.1356C13.4351 10.1356 13.4351 10.1356 13.4351 10.1356C13.4351 10.1356 13.4351 10.1356 13.4351 10.1356C13.4351 10.1356 13.4351 10.1356 13.4351 10.1356L14.8493 8.72138C14.8493 8.72138 14.8493 8.72138 14.8493 8.72138C14.8493 8.72138 14.8493 8.72138 14.8493 8.72138C14.8493 8.72138 14.8493 8.72138 14.8493 8.72138L14.8493 8.72138L14.8493 8.72138C14.8493 8.72138 14.8493 8.72138 14.8493 8.72138C14.8493 8.72138 14.8493 8.72138 14.8493 8.72138C14.8493 8.72138 14.8493 8.72138 14.8493 8.72138C14.8493 8.72138 14.8493 8.72138 14.8493 8.72138C14.8493 8.72138 14.8493 8.72138 14.8493 8.72138L14.8493 8.72138L14.8493 8.72138L14.8493 8.72138C14.8493 8.72138 14.8493 8.72138 14.8493 8.72138C14.8493 8.72138 14.8493 8.72138 14.8493 8.72138L13.4351 10.1356Z" fill="#2F80ED" mask="url(#path-1-inside-1)"/>
</svg>
