<svg width="26" height="18" viewBox="0 0 26 18" fill="none" xmlns="http://www.w3.org/2000/svg">
<path d="M25.25 8.92363C25.25 8.86348 25.25 8.79512 25.2473 8.71582C25.2445 8.49434 25.2391 8.24551 25.2336 7.98027C25.2117 7.21738 25.1734 6.45723 25.1133 5.74082C25.0312 4.75371 24.9109 3.93066 24.7469 3.3127C24.5737 2.66779 24.2344 2.07963 23.7627 1.60698C23.291 1.13434 22.7035 0.793778 22.059 0.619336C21.2852 0.411523 19.7703 0.283008 17.6375 0.203711C16.623 0.16543 15.5375 0.14082 14.452 0.127148C14.0719 0.12168 13.7191 0.118945 13.402 0.116211H12.598C12.2809 0.118945 11.9281 0.12168 11.548 0.127148C10.4625 0.14082 9.37695 0.16543 8.3625 0.203711C6.22969 0.285742 4.71211 0.414258 3.94102 0.619336C3.29625 0.79335 2.70855 1.13377 2.2368 1.60648C1.76505 2.07919 1.42583 2.66758 1.25313 3.3127C1.08633 3.93066 0.96875 4.75371 0.886719 5.74082C0.826563 6.45723 0.788281 7.21738 0.766406 7.98027C0.758203 8.24551 0.755469 8.49434 0.752734 8.71582C0.752734 8.79512 0.75 8.86348 0.75 8.92363V9.07676C0.75 9.13691 0.75 9.20527 0.752734 9.28457C0.755469 9.50606 0.760937 9.75488 0.766406 10.0201C0.788281 10.783 0.826563 11.5432 0.886719 12.2596C0.96875 13.2467 1.08906 14.0697 1.25313 14.6877C1.60313 15.9975 2.63125 17.0311 3.94102 17.3811C4.71211 17.5889 6.22969 17.7174 8.3625 17.7967C9.37695 17.835 10.4625 17.8596 11.548 17.8732C11.9281 17.8787 12.2809 17.8814 12.598 17.8842H13.402C13.7191 17.8814 14.0719 17.8787 14.452 17.8732C15.5375 17.8596 16.623 17.835 17.6375 17.7967C19.7703 17.7146 21.2879 17.5861 22.059 17.3811C23.3687 17.0311 24.3969 16.0002 24.7469 14.6877C24.9137 14.0697 25.0312 13.2467 25.1133 12.2596C25.1734 11.5432 25.2117 10.783 25.2336 10.0201C25.2418 9.75488 25.2445 9.50606 25.2473 9.28457C25.2473 9.20527 25.25 9.13691 25.25 9.07676V8.92363ZM23.2812 9.06582C23.2812 9.12324 23.2812 9.18613 23.2785 9.25996C23.2758 9.47324 23.2703 9.7084 23.2648 9.9627C23.2457 10.69 23.2074 11.4174 23.15 12.0928C23.0762 12.9732 22.9723 13.6951 22.8438 14.1791C22.6742 14.8107 22.1766 15.3111 21.5477 15.4779C20.9734 15.6311 19.527 15.7541 17.5609 15.8279C16.5656 15.8662 15.4937 15.8908 14.4246 15.9045C14.05 15.91 13.7027 15.9127 13.391 15.9127H12.609L11.5754 15.9045C10.5062 15.8908 9.43711 15.8662 8.43906 15.8279C6.47305 15.7514 5.02383 15.6311 4.45234 15.4779C3.82344 15.3084 3.32578 14.8107 3.15625 14.1791C3.02773 13.6951 2.92383 12.9732 2.85 12.0928C2.79258 11.4174 2.75703 10.69 2.73516 9.9627C2.72695 9.7084 2.72422 9.47051 2.72148 9.25996C2.72148 9.18613 2.71875 9.12051 2.71875 9.06582V8.93457C2.71875 8.87715 2.71875 8.81426 2.72148 8.74043C2.72422 8.52715 2.72969 8.29199 2.73516 8.0377C2.7543 7.31035 2.79258 6.58301 2.85 5.90762C2.92383 5.02715 3.02773 4.30527 3.15625 3.82129C3.32578 3.18965 3.82344 2.68926 4.45234 2.52246C5.02656 2.36934 6.47305 2.24629 8.43906 2.17246C9.43438 2.13418 10.5062 2.10957 11.5754 2.0959C11.95 2.09043 12.2973 2.0877 12.609 2.0877H13.391L14.4246 2.0959C15.4937 2.10957 16.5629 2.13418 17.5609 2.17246C19.527 2.24902 20.9762 2.36934 21.5477 2.52246C22.1766 2.69199 22.6742 3.18965 22.8438 3.82129C22.9723 4.30527 23.0762 5.02715 23.15 5.90762C23.2074 6.58301 23.243 7.31035 23.2648 8.0377C23.273 8.29199 23.2758 8.52988 23.2785 8.74043C23.2785 8.81426 23.2812 8.87988 23.2812 8.93457V9.06582ZM10.5664 12.6643L16.9102 8.97285L10.5664 5.33613V12.6643Z" fill="#F9CC3D"/>
</svg>
