<svg width="204" height="36" viewBox="0 0 204 36" fill="none" xmlns="http://www.w3.org/2000/svg">
<path d="M193.709 12.282L190.8 7.6278V4.8C191.463 4.8 192 4.26277 192 3.6V1.2C192 0.537225 191.463 0 190.8 0H181.2C180.537 0 180 0.537225 180 1.2V3.6C180 4.26277 180.537 4.8 181.2 4.8V7.6278L178.291 12.282C178.232 12.3773 178.2 12.4876 178.2 12.6V34.2C178.2 35.1941 179.006 36 180 36H192C192.994 36 193.8 35.1941 193.8 34.2V12.6C193.8 12.4876 193.769 12.3773 193.709 12.282ZM181.2 1.2H190.8V3.6H181.2V1.2ZM189.6 4.8V7.2H182.4V4.8H189.6ZM192.6 34.2C192.6 34.5314 192.332 34.8 192 34.8H180C179.669 34.8 179.4 34.5314 179.4 34.2V12.7722L182.133 8.4H189.868L192.6 12.7722V34.2Z" fill="black" fill-opacity="0.25"/>
<path d="M183.23 15.6458C183.006 15.5529 182.747 15.6043 182.576 15.776L181.8 16.5518L181.024 15.776C180.79 15.5417 180.41 15.5418 180.176 15.7761C180.063 15.8886 180 16.0412 180 16.2002V18.6002H181.2V17.6486L181.376 17.8244C181.61 18.0586 181.99 18.0586 182.224 17.8244L182.4 17.6486V18.6002H183.6V16.2002C183.6 15.9576 183.454 15.7387 183.23 15.6458Z" fill="black" fill-opacity="0.25"/>
<path d="M185.4 15.6001H184.2V18.6001H185.4V15.6001Z" fill="black" fill-opacity="0.25"/>
<path d="M187.2 17.4001V15.6001H186V18.0001C186 18.3314 186.269 18.6001 186.6 18.6001H188.4V17.4001H187.2Z" fill="black" fill-opacity="0.25"/>
<path d="M192 15.6001H190.8C190.8 15.9314 190.531 16.2001 190.2 16.2001V15.6001H189V18.6001H190.2V17.4001C190.531 17.4001 190.8 17.6687 190.8 18.0001V18.6001H192V18.0001C192 17.5571 191.837 17.1296 191.54 16.8001C191.837 16.4706 192 16.0431 192 15.6001Z" fill="black" fill-opacity="0.25"/>
<path d="M140.981 16.2729C141.05 16.3012 141.124 16.3154 141.198 16.3149C141.272 16.3144 141.346 16.2991 141.414 16.2699C141.483 16.2408 141.545 16.1983 141.597 16.145C141.649 16.0917 141.69 16.0286 141.717 15.9594C141.744 15.8902 141.758 15.8163 141.756 15.7419C141.755 15.6674 141.739 15.594 141.709 15.5259C141.679 15.4578 141.636 15.3963 141.582 15.345C141.528 15.2936 141.464 15.2535 141.395 15.227C140.092 14.7112 138.421 14.4272 136.688 14.4272C134.955 14.4272 133.284 14.7112 131.981 15.227C131.911 15.2535 131.848 15.2936 131.794 15.345C131.74 15.3963 131.697 15.4578 131.667 15.5259C131.637 15.594 131.621 15.6674 131.619 15.7419C131.618 15.8163 131.631 15.8902 131.659 15.9594C131.686 16.0286 131.727 16.0917 131.779 16.145C131.831 16.1983 131.893 16.2408 131.961 16.2699C132.03 16.2991 132.103 16.3144 132.178 16.3149C132.252 16.3154 132.326 16.3012 132.395 16.2729C133.569 15.8082 135.094 15.5522 136.688 15.5522C138.282 15.5522 139.807 15.8082 140.981 16.2729Z" fill="black" fill-opacity="0.25"/>
<path d="M155.25 1.125H153C151.357 1.125 149.933 2.91403 148.883 6.29859C148.385 7.90277 148.002 9.77527 147.747 11.8125H136.125V11.8208C133.855 11.8809 131.731 12.3031 130.096 13.0266C128.18 13.874 127.125 15.0564 127.125 16.3559C127.125 17.4732 127.921 18.5199 129.375 19.3277V29.6753C128.521 30.3589 127.937 31.3236 127.727 32.3976C127.667 32.7009 127.675 33.0137 127.75 33.3136C127.826 33.6134 127.967 33.8928 128.163 34.1314C128.353 34.3637 128.592 34.5509 128.863 34.6795C129.134 34.8081 129.43 34.8749 129.73 34.875H150.395C150.851 34.8751 151.293 34.7207 151.65 34.437C152.046 34.7158 152.516 34.8685 153 34.875H155.25C156.893 34.875 158.317 33.086 159.367 29.7014C160.339 26.5679 160.875 22.4122 160.875 18C160.875 13.5878 160.339 9.43214 159.367 6.29859C158.317 2.91403 156.893 1.125 155.25 1.125ZM129.73 33.75C129.596 33.7496 129.464 33.7194 129.343 33.6618C129.223 33.6041 129.116 33.5203 129.032 33.4165C128.941 33.3059 128.876 33.1765 128.841 33.0377C128.807 32.8989 128.803 32.7541 128.831 32.6138C128.939 32.0538 129.183 31.529 129.542 31.0855C129.9 30.642 130.363 30.2936 130.888 30.0708C130.734 30.5066 130.62 30.9552 130.545 31.4111C130.407 32.2228 130.577 33.0568 131.021 33.75H129.73ZM133.312 33.75H132.986C132.654 33.75 132.332 33.5876 132.082 33.293C131.712 32.8574 131.553 32.2219 131.656 31.593C131.937 29.8737 132.83 28.4346 134.041 27.6467C133.83 28.5244 133.818 29.438 134.006 30.3209L134.681 33.5342C134.697 33.6074 134.718 33.6795 134.743 33.7499L133.312 33.75ZM134.644 26.1178C133.361 26.5385 132.263 27.4793 131.51 28.7376C131.164 28.7898 130.825 28.8828 130.5 29.0147V18.9887C130.5 18.8843 130.471 18.782 130.416 18.6932C130.361 18.6044 130.283 18.5326 130.19 18.4858C128.939 17.8589 128.25 17.1025 128.25 16.3559C128.25 15.5408 129.089 14.7023 130.551 14.0555C132.181 13.3345 134.36 12.9375 136.688 12.9375C139.015 12.9375 141.195 13.3345 142.824 14.0555C144.286 14.7023 145.125 15.5408 145.125 16.356C145.125 17.1025 144.436 17.859 143.185 18.4859C143.092 18.5326 143.014 18.6044 142.959 18.6932C142.904 18.782 142.875 18.8843 142.875 18.9887V23.6597C142.447 23.4562 141.997 23.3056 141.533 23.2111C140.563 23.0119 139.562 23.0119 138.592 23.2111C137.834 23.3654 137.114 23.6692 136.475 24.1047C135.835 24.5402 135.289 25.0987 134.867 25.7476C134.788 25.8687 134.714 25.9926 134.644 26.1178ZM145.018 30.0894L144.343 33.3032C144.316 33.4293 144.247 33.5424 144.147 33.6236C144.046 33.7049 143.922 33.7495 143.793 33.75H136.332C136.203 33.7495 136.079 33.7049 135.978 33.6236C135.878 33.5424 135.809 33.4293 135.782 33.3032L135.107 30.0894C134.971 29.4532 134.962 28.7963 135.083 28.1569C135.203 27.5175 135.449 26.9085 135.807 26.3654C136.148 25.8407 136.589 25.389 137.106 25.0367C137.622 24.6844 138.204 24.4385 138.817 24.3134C139.639 24.1447 140.486 24.1447 141.308 24.3134C141.92 24.4385 142.502 24.6844 143.019 25.0367C143.535 25.389 143.977 25.8407 144.317 26.3654C144.675 26.9085 144.922 27.5175 145.042 28.1569C145.162 28.7962 145.154 29.4532 145.018 30.0894ZM148.043 33.293C147.792 33.5878 147.471 33.75 147.139 33.75H145.382C145.407 33.6796 145.428 33.6076 145.444 33.5344L146.119 30.3207C146.307 29.4378 146.295 28.5242 146.084 27.6465C147.296 28.434 148.188 29.8736 148.47 31.5929C148.572 32.2218 148.413 32.857 148.043 33.293ZM145.481 26.1178C145.41 25.9926 145.337 25.8687 145.258 25.7476C144.914 25.2234 144.49 24.7569 144 24.3654V19.3277C145.454 18.5199 146.25 17.4732 146.25 16.3559C146.25 15.0564 145.195 13.8739 143.279 13.0266C143.21 12.996 143.138 12.967 143.068 12.9375H147.62C147.459 14.5536 147.375 16.2566 147.375 18C147.375 21.9765 147.806 25.719 148.598 28.7099C147.846 27.4654 146.754 26.5354 145.481 26.1178ZM151.093 33.4162C151.009 33.5201 150.902 33.6039 150.782 33.6616C150.661 33.7194 150.529 33.7495 150.395 33.75H149.104C149.548 33.0568 149.718 32.2228 149.58 31.4111C149.505 30.9551 149.391 30.5066 149.237 30.0708C149.762 30.2936 150.225 30.642 150.583 31.0855C150.942 31.529 151.186 32.0539 151.294 32.6139C151.322 32.7542 151.318 32.8989 151.284 33.0377C151.249 33.1766 151.184 33.3059 151.093 33.4165V33.4162ZM153 33.75C152.753 33.7426 152.513 33.664 152.31 33.5237C152.442 33.1635 152.472 32.7739 152.398 32.3976C152.261 31.6954 151.963 31.0347 151.527 30.4676C151.091 29.9006 150.529 29.4428 149.886 29.1305C149.601 28.1563 149.369 27.1675 149.191 26.1683C149.968 25.9503 151.691 25.6569 153.947 26.409C154.018 26.4352 154.093 26.447 154.169 26.4435C154.244 26.4401 154.318 26.4215 154.386 26.3889C154.454 26.3563 154.515 26.3103 154.565 26.2537C154.615 26.1971 154.653 26.1311 154.676 26.0595C154.7 25.9879 154.71 25.9123 154.704 25.8371C154.698 25.7618 154.677 25.6886 154.642 25.6217C154.607 25.5548 154.559 25.4955 154.501 25.4475C154.442 25.3996 154.375 25.3638 154.303 25.3423L154.296 25.3403L154.289 25.3378C151.867 24.5341 149.985 24.792 149.005 25.0507C148.681 22.8421 148.513 20.6136 148.501 18.3815C149.189 18.1477 150.968 17.7289 153.384 18.5345C153.455 18.5608 153.531 18.5725 153.606 18.5691C153.681 18.5656 153.755 18.547 153.823 18.5144C153.891 18.4818 153.952 18.4359 154.002 18.3793C154.052 18.3227 154.09 18.2567 154.114 18.1851C154.138 18.1135 154.147 18.0378 154.141 17.9626C154.135 17.8874 154.114 17.8142 154.079 17.7472C154.044 17.6803 153.996 17.6211 153.938 17.5731C153.88 17.5251 153.812 17.4893 153.74 17.4679L153.734 17.4659L153.726 17.4633C151.358 16.6776 149.506 16.9339 148.506 17.2063C148.531 15.1439 148.691 13.0853 148.986 11.0439C149.628 10.833 151.464 10.3951 153.947 11.2226C154.018 11.2488 154.093 11.2606 154.168 11.2571C154.244 11.2537 154.318 11.2351 154.386 11.2025C154.454 11.1699 154.514 11.1239 154.564 11.0674C154.614 11.0108 154.652 10.9447 154.676 10.8731C154.7 10.8016 154.709 10.7259 154.703 10.6507C154.697 10.5755 154.676 10.5022 154.641 10.4353C154.607 10.3684 154.559 10.3092 154.5 10.2612C154.442 10.2132 154.375 10.1774 154.302 10.1559L154.296 10.1539L154.288 10.1514C152.011 9.39544 150.211 9.57888 149.189 9.81865C149.382 8.74289 149.639 7.6795 149.957 6.63405C150.809 3.88828 151.946 2.25 153 2.25C154.054 2.25 155.191 3.88828 156.042 6.63202C156.982 9.66094 157.5 13.6977 157.5 18C157.5 22.3023 156.982 26.3394 156.042 29.368C155.191 32.1117 154.054 33.75 153 33.75ZM158.292 29.368C157.441 32.1117 156.304 33.75 155.25 33.75H155.119C155.877 32.883 156.551 31.524 157.117 29.7014C158.089 26.5679 158.625 22.4122 158.625 18C158.625 13.5878 158.089 9.43214 157.117 6.29859C156.551 4.47602 155.877 3.11702 155.119 2.25H155.25C156.304 2.25 157.441 3.88828 158.292 6.63202C159.232 9.66094 159.75 13.6977 159.75 18C159.75 22.3023 159.232 26.3394 158.292 29.368Z" fill="black" fill-opacity="0.25"/>
<g clip-path="url(#clip0)">
<path d="M25.857 4.78955C22.8518 4.78955 19.8467 8.17037 18.031 11.8016C16.0276 7.79472 12.9598 4.78955 10.2051 4.78955C5.50948 4.78955 0 13.4294 0 20.6919C0 25.951 3.50603 31.21 10.1425 31.21C13.6485 31.21 16.278 29.77 17.9684 27.5788C20.1597 30.2083 23.4153 31.21 25.857 31.21C32.4934 31.21 35.9995 25.8884 35.9995 20.6919C36.0621 13.4294 30.5526 4.78955 25.857 4.78955ZM10.2051 29.9579C5.94774 29.9579 1.31476 27.0779 1.31476 20.6919C1.31476 14.1181 6.19817 6.04171 10.2051 6.04171C12.772 6.04171 15.7145 9.35992 17.4676 13.492C17.4676 13.492 17.4676 13.492 17.4676 13.5546C18.4693 15.8711 19.0954 18.3754 19.0954 20.7545C19.0954 27.0779 14.4624 29.9579 10.2051 29.9579ZM25.857 29.9579C23.6031 29.9579 20.5979 29.0187 18.7197 26.5144C19.784 24.7614 20.2849 22.6954 20.2849 20.6919C20.2849 18.2502 19.6588 15.6207 18.6571 13.2416C20.5979 8.98427 23.4779 5.9791 25.857 5.9791C29.8639 5.9791 34.7473 14.0555 34.7473 20.6293C34.8099 27.0779 30.1769 29.9579 25.857 29.9579Z" fill="black" fill-opacity="0.25"/>
<path d="M4.69529 15.1198C4.38225 14.9946 4.00661 15.1824 3.88139 15.4954C3.81878 15.6833 2.06576 20.2536 3.50574 23.4466C3.63096 23.6344 3.81878 23.7597 4.06921 23.7597C4.13182 23.7597 4.25704 23.7597 4.31964 23.6971C4.63268 23.5718 4.7579 23.1962 4.63268 22.8832C3.38053 20.191 5.00833 15.9963 5.07094 15.9337C5.19615 15.6206 5.00833 15.245 4.69529 15.1198Z" fill="black" fill-opacity="0.25"/>
<path d="M24.9802 8.29599C24.7297 7.98295 24.3541 7.98295 24.1037 8.23339C23.9784 8.3586 20.4724 11.8646 20.535 15.3707C20.535 15.6837 20.848 15.9967 21.1611 15.9967C21.5367 15.9967 21.7872 15.6837 21.7872 15.3707C21.7246 12.4281 24.9176 9.1725 24.9802 9.1725C25.2306 8.92207 25.2306 8.54642 24.9802 8.29599Z" fill="black" fill-opacity="0.25"/>
</g>
<path d="M76.3124 22.5H73.4999V19.125C73.5005 17.8116 73.2298 16.5123 72.7048 15.3084C72.1798 14.1046 71.4118 13.0221 70.449 12.1289C71.2084 10.0969 73.2789 8.32287 73.3007 8.30389C73.3885 8.22941 73.4513 8.12979 73.4807 8.01848C73.5101 7.90717 73.5046 7.78953 73.465 7.68144C73.4254 7.57335 73.3535 7.48001 73.2592 7.41403C73.1649 7.34805 73.0526 7.31261 72.9374 7.31248C71.3111 7.31248 69.8973 7.63177 68.7117 8.26339C68.9354 7.888 69.1835 7.52768 69.4543 7.18472C69.9347 6.57387 70.4688 6.00732 71.0504 5.49188C71.1383 5.41746 71.2013 5.31784 71.2308 5.20647C71.2603 5.09511 71.2549 4.97737 71.2153 4.86919C71.1757 4.761 71.1038 4.66757 71.0094 4.60154C70.915 4.53551 70.8026 4.50006 70.6874 4.49998C69.1669 4.49998 67.8257 4.78313 66.6837 5.34085C66.526 4.16473 65.9926 2.08615 64.189 1.18439C64.1109 1.14534 64.0248 1.125 63.9374 1.125C63.8501 1.125 63.764 1.14534 63.6859 1.18439C61.8843 2.08517 61.3499 4.16016 61.1917 5.33705C60.0534 4.78074 58.7143 4.49998 57.1874 4.49998C57.0723 4.50005 56.9599 4.53546 56.8656 4.60141C56.7712 4.66737 56.6993 4.7607 56.6597 4.8688C56.62 4.97691 56.6145 5.09457 56.6439 5.20591C56.6732 5.31725 56.7361 5.41689 56.8239 5.49139C57.4056 6.00686 57.9399 6.57348 58.4204 7.18444C58.6906 7.52653 58.9381 7.88589 59.1615 8.26022C57.9782 7.63078 56.5657 7.31248 54.9374 7.31248C54.8223 7.31255 54.7099 7.34796 54.6156 7.41391C54.5212 7.47987 54.4493 7.5732 54.4097 7.6813C54.37 7.78941 54.3645 7.90707 54.3939 8.01841C54.4232 8.12974 54.4861 8.22939 54.5739 8.30389C54.596 8.32266 56.6664 10.0969 57.4259 12.1289C56.463 13.0221 55.6951 14.1046 55.1701 15.3084C54.6451 16.5123 54.3744 17.8116 54.3749 19.125V19.1895C53.7543 19.3074 52.933 19.5762 52.4944 19.9055C52.432 19.952 52.3665 19.9941 52.2983 20.0314C52.4464 18.6767 52.7087 17.2947 53.1554 16.6245C53.1976 16.5631 53.227 16.4939 53.2422 16.421C53.2574 16.3481 53.2579 16.2729 53.2437 16.1997C53.2296 16.1266 53.2011 16.057 53.1598 15.995C53.1186 15.933 53.0654 15.8798 53.0035 15.8385C52.9415 15.7971 52.8719 15.7686 52.7988 15.7543C52.7257 15.7401 52.6505 15.7406 52.5776 15.7557C52.5046 15.7707 52.4354 15.8001 52.3739 15.8422C52.3125 15.8842 52.2599 15.9381 52.2194 16.0006C51.7095 16.7656 51.3512 18.1676 51.1534 20.166C50.9646 20.1122 50.7873 20.024 50.6305 19.9058C50.0372 19.4602 48.7429 19.125 48.1936 19.125C46.723 19.125 45.396 19.7246 44.4573 20.8134C43.3873 22.0544 42.9303 23.8183 43.2033 25.6527L43.5549 28.0135C43.7733 29.5109 44.262 30.956 44.9973 32.2785C45.9156 33.9239 47.5092 34.8772 49.1949 34.8771C49.6098 34.8767 50.0226 34.8196 50.4219 34.7072C50.4347 34.7037 50.4473 34.6996 50.4597 34.6951L51.4007 34.3585C51.5054 34.3206 51.6201 34.3206 51.7248 34.3585L52.6656 34.6951C52.6781 34.6996 52.6907 34.7036 52.7035 34.7072C53.1028 34.8196 53.5157 34.8767 53.9305 34.8771C55.1634 34.8771 56.3467 34.3665 57.253 33.4488C59.1598 34.3803 61.2528 34.8679 63.3749 34.875C66.8765 34.875 70.2597 33.5492 72.9023 31.142C75.4269 28.8417 76.8749 25.8969 76.8749 23.0625C76.8749 22.9133 76.8157 22.7702 76.7102 22.6647C76.6047 22.5592 76.4616 22.5 76.3124 22.5ZM61.5626 19.6804L63.9448 17.3672L66.3318 19.6845L63.9507 21.9937L61.5626 19.6804ZM62.8564 22.5H59.6403C59.5582 22.2703 59.4612 22.0462 59.3499 21.8291L60.755 20.4646L62.8564 22.5ZM67.1392 20.4684L69.232 22.5H65.0442L67.1392 20.4684ZM64.752 16.583L67.1322 14.2716L69.5211 16.5919L67.1396 18.9012L64.752 16.583ZM65.1458 10.7744C66.1792 10.9232 67.1757 11.264 68.084 11.7791L67.1322 12.7034L65.1458 10.7744ZM66.3248 13.4875L63.9445 15.7992L61.5654 13.4896L63.9462 11.1777L66.3248 13.4875ZM60.7581 12.7054L59.7991 11.7744C60.7112 11.2585 61.7121 10.9185 62.7497 10.7719L60.7581 12.7054ZM60.7581 14.2734L63.1373 16.5832L60.7542 18.8974L58.3723 16.5905L60.7581 14.2734ZM59.9466 19.6815L58.7185 20.8744C58.7015 20.854 58.6849 20.8334 58.6676 20.8134C57.9096 19.9287 56.8562 19.3492 55.7032 19.1825L57.5648 17.3746L59.9466 19.6815ZM59.57 28.0135L59.9216 25.6527C60.0238 24.9807 60.0246 24.2972 59.924 23.625H73.4C73.0756 25.4824 71.9773 27.3432 70.3206 28.8105C68.3623 30.5449 65.8956 31.5 63.3749 31.5C61.842 31.4937 60.3298 31.1456 58.9484 30.4811C59.2376 29.6815 59.4459 28.8548 59.5701 28.0135H59.57ZM71.4227 22.5L72.3749 21.5778V22.5H71.4227ZM72.3749 20.0117L70.327 21.995L67.9474 19.6849L70.3288 17.3757L72.3749 19.3628V20.0117ZM72.2495 17.6727L71.1367 16.5922L71.7669 15.981C71.9868 16.5264 72.1486 17.0934 72.2495 17.6727ZM71.2485 14.9165L70.3293 15.8078L67.9398 13.4875L69.0452 12.414C69.9376 13.0946 70.6864 13.9452 71.2485 14.9167V14.9165ZM71.4581 8.54506C70.812 9.25718 70.033 10.2587 69.5402 11.3805C69.0373 11.0156 68.5001 10.7005 67.9362 10.4396C67.9432 10.352 67.9539 10.2644 67.9677 10.1768C68.8739 9.30935 70.0436 8.76282 71.4581 8.54527V8.54506ZM69.2074 5.73256C68.2941 6.7395 67.1153 8.32477 66.8544 10.0175C66.1924 9.80497 65.5092 9.66585 64.8168 9.60263C64.7509 9.39781 64.6664 9.16606 64.5592 8.91708C65.2499 7.59429 66.5953 6.13608 69.2074 5.73312V5.73256ZM63.9374 2.33485C65.3314 3.24293 65.574 5.32545 65.6162 5.98407C64.9543 6.46988 64.3854 7.07092 63.9366 7.7584C63.6785 7.36382 63.381 6.99649 63.0486 6.66209C62.803 6.41581 62.539 6.18863 62.2589 5.98252C62.3012 5.32228 62.5445 3.24223 63.9374 2.33485ZM58.6682 5.73396C61.7848 6.21771 63.0826 8.20643 63.612 9.5686C62.7316 9.59769 61.8594 9.74895 61.0205 10.018C61.0029 9.90385 60.9813 9.79025 60.9556 9.67723L60.9754 9.65888C60.9651 9.64777 60.9543 9.63708 60.9442 9.62611C60.5787 8.08318 59.5106 6.66279 58.6682 5.73396ZM56.4165 8.54499C57.8326 8.76232 59.0014 9.30957 59.9074 10.1781C59.921 10.2653 59.9318 10.3527 59.9387 10.4398C59.3748 10.7007 58.8376 11.0158 58.3347 11.3807C57.8418 10.2586 57.0626 9.25711 56.4165 8.54499ZM58.837 12.4084L59.9507 13.4896L57.5639 15.8075L56.633 14.9058C57.1958 13.9362 57.9448 13.0874 58.837 12.4084ZM56.1131 15.9685L56.7564 16.5916L55.622 17.6931C55.7234 17.1023 55.8881 16.5241 56.1131 15.9685ZM57.1453 31.7303C56.4322 33.0082 55.2069 33.75 53.9203 33.75C53.6178 33.7498 53.3166 33.709 53.0249 33.6288L52.1038 33.2993C51.754 33.1744 51.3716 33.1744 51.0217 33.2993L50.0999 33.629C48.5109 34.0643 46.8573 33.3031 45.9796 31.7305C45.3107 30.5266 44.8661 29.2111 44.6677 27.8482L44.3161 25.4873C44.0911 23.9769 44.4534 22.5413 45.3094 21.5483C45.6663 21.1345 46.1094 20.8039 46.6077 20.5796C47.1059 20.3553 47.6473 20.2428 48.1936 20.25C48.551 20.25 49.5957 20.5354 49.9552 20.8054C50.282 21.0519 50.6607 21.2206 51.0626 21.2985C51.0349 21.7463 51.0194 22.1398 51.0108 22.4412C50.5246 22.3321 50.2795 22.1087 50.2662 22.0962L50.2724 22.1023C50.2203 22.0496 50.1582 22.0077 50.0898 21.979C50.0214 21.9504 49.948 21.9356 49.8739 21.9354C49.7997 21.9352 49.7263 21.9497 49.6577 21.978C49.5892 22.0064 49.5269 22.0479 49.4745 22.1004C49.4221 22.1529 49.3806 22.2152 49.3524 22.2838C49.3242 22.3523 49.3098 22.4258 49.31 22.5C49.3103 22.5741 49.3252 22.6475 49.354 22.7158C49.3827 22.7842 49.4247 22.8462 49.4775 22.8983C49.5529 22.9734 50.2437 23.625 51.5624 23.625C52.8823 23.625 53.5734 22.9721 53.6477 22.8977C53.6999 22.8455 53.7414 22.7835 53.7696 22.7152C53.7979 22.647 53.8125 22.5738 53.8125 22.5C53.8125 22.4261 53.7979 22.353 53.7696 22.2847C53.7414 22.2165 53.6999 22.1545 53.6477 22.1022C53.5955 22.05 53.5335 22.0086 53.4652 21.9803C53.397 21.952 53.3238 21.9375 53.2499 21.9375C53.1761 21.9375 53.1029 21.952 53.0347 21.9803C52.9664 22.0086 52.9044 22.05 52.8522 22.1022C52.8492 22.1052 52.609 22.3236 52.135 22.4354C52.1448 22.0956 52.1626 21.6977 52.1908 21.2705C52.5452 21.1832 52.8782 21.0249 53.1696 20.8052C53.5292 20.5354 54.5739 20.2498 54.9312 20.2498C55.4775 20.2426 56.0189 20.355 56.5171 20.5793C57.0154 20.8035 57.4585 21.1341 57.8155 21.5478C58.6715 22.5407 59.0336 23.9764 58.8088 25.4869L58.4572 27.8477C58.2588 29.2107 57.8142 30.5262 57.1453 31.7303ZM72.1443 30.3104C69.7096 32.5284 66.5953 33.75 63.3749 33.75C61.5072 33.7435 59.6631 33.3318 57.9699 32.5433C58.0244 32.4571 58.0773 32.369 58.1278 32.2785C58.2662 32.0306 58.3958 31.7781 58.5166 31.5211C60.0352 32.2417 61.694 32.6186 63.3749 32.625C66.1707 32.625 68.9023 31.5694 71.0666 29.6526C72.9685 27.9681 74.2131 25.7967 74.5391 23.625H75.7284C75.5495 25.9701 74.2656 28.3781 72.1443 30.3104Z" fill="black" fill-opacity="0.25"/>
<path d="M70.6875 25.875C70.9982 25.875 71.25 25.6232 71.25 25.3125C71.25 25.0018 70.9982 24.75 70.6875 24.75C70.3768 24.75 70.125 25.0018 70.125 25.3125C70.125 25.6232 70.3768 25.875 70.6875 25.875Z" fill="black" fill-opacity="0.25"/>
<path d="M67.875 28.6875C68.1857 28.6875 68.4375 28.4357 68.4375 28.125C68.4375 27.8143 68.1857 27.5625 67.875 27.5625C67.5643 27.5625 67.3125 27.8143 67.3125 28.125C67.3125 28.4357 67.5643 28.6875 67.875 28.6875Z" fill="black" fill-opacity="0.25"/>
<path d="M65.0625 27C65.3732 27 65.625 26.7482 65.625 26.4375C65.625 26.1268 65.3732 25.875 65.0625 25.875C64.7518 25.875 64.5 26.1268 64.5 26.4375C64.5 26.7482 64.7518 27 65.0625 27Z" fill="black" fill-opacity="0.25"/>
<path d="M61.6875 27C61.9982 27 62.25 26.7482 62.25 26.4375C62.25 26.1268 61.9982 25.875 61.6875 25.875C61.3768 25.875 61.125 26.1268 61.125 26.4375C61.125 26.7482 61.3768 27 61.6875 27Z" fill="black" fill-opacity="0.25"/>
<path d="M63.375 30.375C63.6857 30.375 63.9375 30.1232 63.9375 29.8125C63.9375 29.5018 63.6857 29.25 63.375 29.25C63.0643 29.25 62.8125 29.5018 62.8125 29.8125C62.8125 30.1232 63.0643 30.375 63.375 30.375Z" fill="black" fill-opacity="0.25"/>
<g clip-path="url(#clip1)">
<path d="M103.153 1.03864L102.459 0.205283C102.231 -0.0488121 101.84 -0.0699305 101.586 0.158178C101.569 0.173006 101.554 0.188733 101.539 0.205283L100.844 1.03804C99.269 2.93076 98.4056 5.31526 98.4043 7.77796C98.4062 9.76241 100.014 11.3706 101.999 11.3726C103.983 11.3706 105.592 9.76241 105.594 7.77796C105.592 5.31549 104.729 2.93128 103.153 1.03864ZM101.999 10.1744C100.675 10.1744 99.6025 9.10145 99.6025 7.77796C99.6042 5.59564 100.369 3.48261 101.765 1.80489L101.999 1.52451L102.233 1.80549C103.629 3.48283 104.394 5.59579 104.395 7.77796C104.395 9.10145 103.322 10.1744 101.999 10.1744Z" fill="black" fill-opacity="0.25"/>
<path d="M112.484 4.18311C109.011 4.18707 106.197 7.00114 106.193 10.4737C106.193 11.9626 107.4 13.1697 108.889 13.1697C110.378 13.1697 111.585 11.9626 111.585 10.4737C111.585 9.97741 111.988 9.57504 112.484 9.57504C113.973 9.57504 115.18 8.36799 115.18 6.87907C115.18 5.39015 113.973 4.18311 112.484 4.18311ZM112.484 8.37683C111.326 8.37683 110.387 9.31562 110.387 10.4737C110.387 11.3009 109.717 11.9714 108.889 11.9714C108.062 11.9714 107.392 11.3009 107.392 10.4737C107.395 7.66262 109.673 5.38461 112.484 5.38131C113.311 5.38131 113.982 6.05186 113.982 6.87907C113.982 7.70628 113.311 8.37683 112.484 8.37683Z" fill="black" fill-opacity="0.25"/>
<path d="M96.6603 6.96065C96.5693 6.95301 96.4778 6.96619 96.3927 6.99929L96.1998 7.07358L96.4454 6.09105C96.6378 5.3206 96.1693 4.54004 95.3988 4.34766C95.17 4.29052 94.9308 4.29052 94.702 4.34766L93.7189 4.59389L93.7932 4.40038C93.8678 4.20732 93.8375 3.98939 93.7129 3.82404C93.5906 3.65681 93.3896 3.5659 93.1833 3.5844C91.7542 3.74675 90.4259 4.40023 89.4251 5.43323C87.3217 7.53848 86.9431 10.5783 88.5798 12.2115C89.2776 12.8909 90.2201 13.2601 91.1937 13.2354C91.4229 13.2351 91.6517 13.2185 91.8785 13.1856C93.2035 12.9668 94.4233 12.3282 95.3581 11.3638C96.3903 10.3634 97.0437 9.03609 97.2069 7.60798C97.2347 7.27832 96.9899 6.9885 96.6603 6.96065ZM93.1929 5.95745L94.9944 5.50812C95.1228 5.47607 95.2529 5.55418 95.285 5.68253C95.2945 5.72065 95.2945 5.76057 95.285 5.79868L94.835 7.596L92.166 8.62466L93.1929 5.95745ZM94.5109 10.5184C93.7597 11.3002 92.7773 11.82 91.7083 12.0012C90.8901 12.1664 90.0421 11.9304 89.4269 11.3662C88.2575 10.1979 88.6397 7.91771 90.2723 6.28036C90.8366 5.70882 91.5215 5.27057 92.2769 4.99768L90.5604 9.45561C90.4408 9.76408 90.5938 10.1112 90.9023 10.2309C91.0417 10.2849 91.1963 10.2849 91.3357 10.2309L95.7918 8.51382C95.5195 9.26914 95.0819 9.95399 94.5109 10.5184Z" fill="black" fill-opacity="0.25"/>
<path d="M107.082 14.9683C106.129 14.9685 105.215 15.347 104.541 16.0207C102.801 17.7629 101.725 20.0592 101.501 22.5114L101.4 23.5946C101.37 23.9241 101.613 24.2154 101.943 24.2452C101.961 24.247 101.98 24.2477 101.999 24.2476C102.017 24.2476 102.036 24.2476 102.054 24.2476L103.132 24.1494C105.584 23.925 107.881 22.8493 109.623 21.1089C110.301 20.4353 110.681 19.5179 110.677 18.5621C110.677 16.5769 109.067 14.9678 107.082 14.9683ZM108.78 20.2587L108.777 20.2563C107.234 21.7989 105.199 22.7526 103.026 22.9523L102.662 22.9858L102.695 22.6216C102.894 20.4484 103.848 18.4136 105.391 16.8702C106.337 15.9448 107.855 15.9616 108.78 16.9078C109.691 17.839 109.691 19.3273 108.78 20.2587Z" fill="black" fill-opacity="0.25"/>
<path d="M98.7047 13.1699C97.2157 13.1699 96.0087 14.377 96.0087 15.8659C96.0087 16.3622 95.6063 16.7645 95.11 16.7645C93.6211 16.7645 92.4141 17.9716 92.4141 19.4605C92.4141 20.9494 93.6211 22.1565 95.11 22.1565C98.5826 22.1525 101.397 19.3384 101.401 15.8659C101.401 14.377 100.194 13.1699 98.7047 13.1699ZM95.11 20.9583C94.2828 20.9583 93.6123 20.2877 93.6123 19.4605C93.6123 18.6333 94.2828 17.9628 95.11 17.9628C96.2681 17.9628 97.2069 17.024 97.2069 15.8659C97.2069 15.0387 97.8774 14.3681 98.7047 14.3681C99.5319 14.3681 100.202 15.0387 100.202 15.8659C100.199 18.677 97.9211 20.955 95.11 20.9583Z" fill="black" fill-opacity="0.25"/>
<path d="M115.778 10.3667C113.466 10.3667 111.585 12.7853 111.585 15.7586C111.562 17.1965 112.039 18.5976 112.935 19.7229C113.148 19.976 113.526 20.0083 113.779 19.7951C113.848 19.7365 113.904 19.6629 113.94 19.5797L114.024 19.3916L114.546 20.2603C114.954 20.9413 115.837 21.162 116.518 20.7535C116.721 20.6321 116.89 20.4627 117.011 20.2603L117.533 19.3916L117.617 19.5797C117.7 19.7686 117.875 19.901 118.08 19.9302C118.108 19.9343 118.136 19.9363 118.164 19.9362C118.341 19.9362 118.509 19.8582 118.622 19.7229C119.518 18.5976 119.995 17.1965 119.972 15.7586C119.972 12.7853 118.091 10.3667 115.778 10.3667ZM115.984 19.6438C115.916 19.7573 115.769 19.7941 115.655 19.7261C115.622 19.7058 115.593 19.6776 115.573 19.6438L114.618 18.0526L115.778 15.4381L116.939 18.0526L115.984 19.6438ZM118.263 18.0826H118.261L116.324 13.7187C116.189 13.4163 115.835 13.2799 115.533 13.4142C115.397 13.4745 115.289 13.583 115.228 13.7187L113.294 18.0826C112.952 17.3558 112.778 16.5617 112.783 15.7586C112.783 13.4467 114.127 11.5649 115.778 11.5649C117.43 11.5649 118.774 13.4467 118.774 15.7586C118.779 16.5617 118.605 17.3558 118.263 18.0826Z" fill="black" fill-opacity="0.25"/>
<path d="M97.205 32.8834L97.1068 31.805C96.8823 29.3528 95.8066 27.0564 94.0663 25.3143C92.6626 23.9104 90.3867 23.9102 88.9828 25.3138C88.3083 25.9882 87.9295 26.903 87.9297 27.8569C87.9272 28.8106 88.3062 29.7257 88.9823 30.3983C90.7244 32.1386 93.0208 33.2142 95.473 33.4387L96.5514 33.537C96.5694 33.537 96.5879 33.537 96.6059 33.537C96.9368 33.5383 97.2061 33.2712 97.2075 32.9404C97.2076 32.9213 97.2067 32.9023 97.205 32.8834ZM95.5838 32.2447C93.4107 32.0451 91.376 31.0913 89.8325 29.5488C88.897 28.613 88.897 27.096 89.8325 26.1602L89.8295 26.1626C90.7653 25.2267 92.2826 25.2267 93.2185 26.1625L93.2186 26.1626C94.7614 27.706 95.7153 29.7408 95.9146 31.914L95.9481 32.2783L95.5838 32.2447Z" fill="black" fill-opacity="0.25"/>
<path d="M114.88 22.7554C113.392 22.7554 112.184 23.9624 112.184 25.4513C112.184 25.9476 111.782 26.35 111.286 26.35C109.797 26.35 108.59 27.557 108.59 29.046C108.59 30.5349 109.797 31.7419 111.286 31.7419C114.758 31.738 117.572 28.9239 117.576 25.4513C117.576 23.9624 116.369 22.7554 114.88 22.7554ZM111.286 30.5437C110.459 30.5437 109.788 29.8732 109.788 29.046C109.788 28.2187 110.459 27.5482 111.286 27.5482C112.444 27.5482 113.383 26.6094 113.383 25.4513C113.383 24.6241 114.053 23.9536 114.88 23.9536C115.708 23.9536 116.378 24.6241 116.378 25.4513C116.375 28.2624 114.097 30.5404 111.286 30.5437Z" fill="black" fill-opacity="0.25"/>
<path d="M107.99 31.9819C107.619 29.1579 105.462 26.8995 102.658 26.3994C101.467 26.1776 100.242 26.5398 99.3631 27.3736C97.7281 29.0085 98.105 32.0466 100.21 34.1512C101.211 35.184 102.539 35.8373 103.968 35.9995C103.985 36.0004 104.002 36.0004 104.019 35.9995C104.35 35.9994 104.618 35.7311 104.618 35.4001C104.618 35.3267 104.605 35.2538 104.578 35.1853L104.504 34.9924L105.487 35.238C105.602 35.2675 105.722 35.2823 105.841 35.2823C106.635 35.2793 107.277 34.6331 107.274 33.839C107.273 33.7231 107.259 33.6076 107.231 33.4952L106.985 32.5121L107.178 32.5864C107.37 32.6594 107.585 32.63 107.751 32.5085C107.916 32.3857 108.006 32.1869 107.99 31.9819ZM106.004 34.0152C105.944 34.0749 105.857 34.0989 105.775 34.0781L103.978 33.6288L102.95 30.9592L105.619 31.9879L106.066 33.7876C106.088 33.8693 106.064 33.9562 106.004 34.0152ZM102.119 29.356C101.81 29.2372 101.463 29.3914 101.345 29.7002C101.292 29.8387 101.292 29.9922 101.345 30.1306L103.061 34.5862C102.305 34.314 101.62 33.8759 101.056 33.3041C99.4206 31.6691 99.0408 29.3884 100.208 28.2207C100.685 27.7673 101.324 27.5249 101.982 27.5485C102.152 27.549 102.322 27.5614 102.49 27.5857C103.56 27.7667 104.542 28.2862 105.294 29.0678C105.866 29.6323 106.303 30.3175 106.576 31.073L102.119 29.356Z" fill="black" fill-opacity="0.25"/>
<path d="M89.6805 18.3693C89.6807 18.3691 89.6808 18.369 89.6809 18.3689C90.7464 17.3289 90.7671 15.622 89.7271 14.5565C88.687 13.491 86.9802 13.4703 85.9147 14.5103C85.8992 14.5254 85.8839 14.5407 85.8688 14.5562C83.4122 17.0128 83.4122 20.9957 85.8688 23.4523C86.3724 23.9608 87.0589 24.246 87.7745 24.2443C89.2635 24.2453 90.4713 23.0391 90.4723 21.5501C90.4728 20.8336 90.188 20.1464 89.6809 19.6402C89.3298 19.2894 89.3297 18.7203 89.6805 18.3693ZM88.8337 22.6075C88.2414 23.1737 87.3083 23.1737 86.7159 22.6075C84.7272 20.6188 84.7271 17.3945 86.7158 15.4057C86.7158 15.4057 86.7159 15.4057 86.7159 15.4056C87.3035 14.8233 88.2518 14.8277 88.834 15.4152C89.4127 15.9992 89.4126 16.9403 88.8337 17.524C88.0164 18.3436 88.0164 19.67 88.8337 20.4896C89.4185 21.0745 89.4185 22.0226 88.8337 22.6075Z" fill="black" fill-opacity="0.25"/>
</g>
<defs>
<clipPath id="clip0">
<rect width="36" height="36" fill="white"/>
</clipPath>
<clipPath id="clip1">
<rect width="36" height="36" fill="white" transform="translate(84)"/>
</clipPath>
</defs>
</svg>
